<?xml version="1.0" encoding="utf-8"?>
<!-- Generator: Adobe Illustrator 23.0.3, SVG Export Plug-In . SVG Version: 6.00 Build 0)  -->
<svg version="1.1" id="Layer_1" xmlns="http://www.w3.org/2000/svg" xmlns:xlink="http://www.w3.org/1999/xlink" x="0px" y="0px"
	 viewBox="0 0 205.9 175" style="enable-background:new 0 0 205.9 175;" xml:space="preserve">
<style type="text/css">
	.st0{fill:#D2DDE8;}
	.st1{fill:#D7B328;}
	.st2{fill:#11529E;}
	.st3{fill:#EE3A34;}
	.st4{fill:#F37C20;}
	.st5{fill:#3CB8EA;}
</style>
<g>
	<g>
		<path class="st0" d="M188.1,29.2c-0.2-0.2-0.4-0.3-0.6-0.4c-0.4-0.3-0.7-0.5-0.8-0.6c0,0-0.1,0-0.1,0c0,0,0,0,0,0
			c-10.8-7.7-22.4-11.1-31.2-12.6c-11-1.9-19.2-1.3-19.5-1.3c-0.2,0-0.3,0.1-0.5,0.2c-7.1-4-17.9-8.5-29.2-10.9
			c-8.9-1.9-16.7-2.4-24.8-1.2C72,3.7,63.3,6.5,55.5,12c-10.2,7.1-17.4,18.3-20.7,32.2c-0.4,1.6-0.2,2.9,0.5,3.9
			c0.9,1.3,2.3,1.7,2.6,1.8c6.7,1.9,12.5,3,17.5,3.3C60,53.4,63.9,53,67.6,52c6.6-1.9,12.4-6,18.2-13c0.7,4.7-0.6,10.1-3.6,14.8
			c-3.5,5.5-9,9.5-14.9,10.8l0,0c-0.4,0.1-3.9,1.1-4.5,3.5c-0.3,1.2,0.2,2.5,1.5,3.8c3.8,3.7,17.3,10.7,32.4,7.2
			c0.5-0.1,1.1-0.2,1.6-0.3c1.4-0.3,2.8-0.4,4.3-0.5c1.4-0.1,2.8-0.1,4.2,0.1c1.2,0.1,2.4,0.3,3.6,0.8c1.1,0.4,2.1,1.2,2.7,2.2
			c0.1,0.2,0.3,0.5,0.4,0.8c0,0.1,0.1,0.2,0.1,0.4c0,0,0,0,0,0c0.2,1.2,0.4,2.4,0.5,3.5v0c-0.1,0-0.1,0.1-0.2,0.1
			c-0.1,0.1-9.4,10.2-16.1,10c-1,0-2.1-0.2-3.2-0.5c-8.1-2.5-9.4-7.6-7.7-1.7c0.6,2,1.7,3.4,3.1,5.3c0.1,0.1,0.2,0.3,0.3,0.4
			c0,0,0,0,0,0.1c1.4,1.8,3.1,3.7,4.6,5.4c4.3,4.6,9.3,7,11.3,7.8c-4.1,5.2-9.8,9.5-16.9,12.8c-10.9,5-24.3,6.1-34.8,2
			c-8.7-3.4-19.2-18.2-21.6-26.5c3.1,1.6,11.8,6.5,14.6,6.2c2.8-0.2,7.3-1.7,19.7-7.8h0c1.3-0.6,2.6-1.3,4.1-2
			c0.1-0.1,0.3-0.1,0.4-0.2c3.4-1.9,7.2-4.2,11-8.2c0,0-7.8,2.9-15,3.1C53,92.1,34,84.9,32,84C18.9,70.8,11.7,57.8,8.5,50.8
			c0,0-0.2-0.7-0.2-0.7C6,43.4,6,35.4,6,35.4C1.4,45.6,2,55.7,2,55.7s0,0.1,0,0.2C1.4,70.1,1.8,74.8,2.7,77.5
			c1.1,3.1,10,10.4,11.1,11.2c8.6,35.1,22.4,50.6,33.1,59.3c10.1,8.2,18.6,10.1,21,10.6c0,0.5,0,1.1,0,1.6c0,0,0,0,0,0
			s0.2,6.2-4.1,9.2c-4,2.8,10-2.8,13.1-4.6h0l10.7-4.9c0.1,0,0.3,0,0.4,0c5.3-0.3,11.7-1.7,17.1-2.9c2.5-0.6,5.1-1.1,7.7-1.8h0
			c1.5,1.6,5.9,6.6,5.6,12.2c0,0,0,0,0,0c0,0.2,0,0.4-0.1,0.7v0c0,0.4-0.1,0.7-0.2,1c0,0,0,0,0,0c-1.2,4.3-9,5.2-2.5,4.3
			c6.1-0.8,9.6-4.8,10.4-5.8c0,0,0,0,0,0c4.3-4.6,8.1-12.9,6.7-21c5.7-3,11.8-6.3,16.7-10.6c22.8-19.9,30.8-55.4,21.4-84
			c-0.3-0.8-0.2-1.4-0.6-1.8c7.3-5.5,15.2-6.8,20.6-7.3c10.4-0.5,13.6,3.4,13.8,3.7C201.5,38.6,191.7,31.8,188.1,29.2z M106.5,112.9
			C106.5,112.9,106.6,112.9,106.5,112.9l0.3,0.2C106.8,113,106.7,113,106.5,112.9z"/>
	</g>
	<g>
		<path class="st1" d="M125.8,167.8C125.8,167.8,125.8,167.8,125.8,167.8c-0.8,1-4.3,4.9-10.4,5.8c-6.5,0.9,1.3,0,2.5-4.3
			c0,0,0,0,0,0c0.1-0.3,0.1-0.7,0.2-1v0c0-0.2,0-0.4,0.1-0.7c0,0,0,0,0,0c0.3-6.8-6.1-12.6-6.2-12.7c-0.4-0.3-0.4-0.9-0.1-1.3
			c0.4-0.4,0.9-0.4,1.3-0.1c0.3,0.3,7.4,6.8,6.8,14.6c0,0.1,0,0.1,0,0.2c0,0,0,0,0,0c0,0.1,0,0.1,0,0.2c0,0.2,0,0.3-0.1,0.5
			c0,0.1,0,0.3-0.1,0.4c-0.1,0.3-0.1,0.5,0,0.6c0.3,0,0.9-0.3,1.8-0.9c0.1,0,0.1-0.1,0.2-0.1c0.5-0.4,1.2-0.9,1.9-1.6
			c3.7-3.6,9.4-11.8,7.7-20.2c-0.1-0.5,0.2-1,0.7-1.1c0.5-0.1,1,0.2,1.1,0.7C134.9,155,130.2,163.1,125.8,167.8z"/>
	</g>
	<path class="st1" d="M128,120.6c-1.8,2.3-3.7,4.2-5.4,5.5c-1.4,1-2.8,1.9-4.1,2.7c-12.8,7.8-24.7,9.1-34.8,8.6
		C76,137,65,134.5,59.6,132c-14.4-6.5-18.9-13.9-19.2-14.4c-0.4-0.4-1.2-1.4-0.8-1.7c0.4-0.4,1.2,0.4,1.5,0.9
		c0.1,0.1,3.6,6.4,17.6,12.7c18.3,8.2,43,8.2,61.6-4.3c0,0,0,0,0.1,0C124.3,122.2,131.6,115.9,128,120.6z"/>
	<g>
		<path class="st2" d="M74.7,23.3c-0.4-0.3-1-0.3-1.4,0.2c-2.7,3.5-5.5,5.2-8.2,5.2c-3.9,0-6.6-3.7-6.7-3.7
			c-0.3-0.4-0.9-0.5-1.4-0.2c-0.4,0.3-0.5,0.9-0.2,1.4c0.1,0.2,3.2,4.2,7.8,4.5c0.1,0,0.2,0,0.4,0c3.4,0,6.7-2,9.8-6
			C75.2,24.3,75.1,23.6,74.7,23.3z"/>
	</g>
	<g>
		<g>
			<path class="st3" d="M90.4,96.2c-0.2,0.4,2.3,3.5,6.1,7.6c5.1,5.4,11.2,7.5,11.3,7.5c0.6,0.2,0.9,0.8,0.7,1.4
				c-0.1,0.4-0.5,0.7-1,0.7c-0.1,0-0.3,0-0.4,0c0,0-0.3-0.1-0.7-0.2c0,0-0.1,0-0.1,0c0,0,0,0,0,0c-1.9-0.8-7-3.1-11.4-7.8
				c-1.5-1.6-3.3-3.6-4.6-5.4c0,0,0,0,0-0.1c-0.1-0.1-0.2-0.3-0.3-0.4c-1.4-1.9-2.5-3.9-3.1-5.9c-1.7-5.9-0.4-0.8,7.7,1.7
				c1.1,0.3,2.2,0.5,3.2,0.5c6.7,0.2,16-9.3,16.1-9.4c0.4-0.4,1.1-0.4,1.5,0.1c0.4,0.5,0.4,1.1-0.1,1.5c-0.4,0.4-10.1,10.1-17.6,9.9
				C94.1,97.7,90.5,95.8,90.4,96.2z"/>
		</g>
	</g>
	<g>
		<g>
			<path class="st4" d="M204.5,46.7c-0.2-0.2-3.4-4.1-13.8-3.7c-5.7,0.6-13.3,2.2-20.9,8.2c-0.2,0.2-0.4,0.2-0.7,0.2
				c-0.3,0-0.5-0.1-0.7-0.4c-0.3-0.4-0.3-1,0.2-1.4c9.9-7.9,20.2-8.6,25.7-9c1.2-0.1,2.5-0.2,3.3-0.3c0.2-0.2,0.1-0.5-0.3-1.1
				c-0.4-0.6-1-1.2-1.6-1.9c0,0,0,0,0,0c-1.6-1.6-3.7-3.4-5-4.5C179.2,22.8,164.9,18.7,155,17c-10.8-1.8-19-1.3-19.1-1.3
				c-0.5,0-1-0.4-1.1-0.9c0-0.5,0.4-1,0.9-1.1c0.3,0,8.5-0.6,19.5,1.3c8.9,1.5,21.1,4.9,31.9,12.6c0,0,0,0,0,0c0,0,0,0,0.1,0
				c0.1,0.1,0.4,0.3,0.8,0.6c0.2,0.1,0.4,0.3,0.6,0.4C192.3,31.4,201.5,38.8,204.5,46.7z"/>
		</g>
	</g>
	<g>
		<path class="st1" d="M87.8,160.1c-0.5,0-1.4-0.4-1.4-0.9c0-0.5,0.3-1.1,0.8-1.2c29.5-2.9,56.5-14,73.5-38c2-2.8,5.8-10.6,6.9-13.9
			c3.1-8.9,5.1-17.3,5.6-26.8c0.5-8.6-1.3-19.1-4.6-27.1c-1.6-3.8,1.9-3.4,3.1,0.2c9.5,28.6,0.4,63.8-22.4,83.7
			c-8.3,7.2-17.6,12.6-27.8,16.4c-5.3,2-11,3.4-16.6,4.6C99.5,158.3,93.1,159.8,87.8,160.1z"/>
	</g>
	<path class="st3" d="M108,25.3c0.8,1.1,1.3,2.4,1.6,3.8c0.3,1.4,0.4,2.8,0.2,4.2c-0.2,1.4-0.5,2.8-1.2,4c-0.3,0.6-0.7,1.2-1,1.8
		c-0.4,0.6-0.9,1.1-1.3,1.6c0.2-0.7,0.5-1.2,0.8-1.9c0.2-0.6,0.5-1.2,0.7-1.9c0.1-0.3,0.2-0.6,0.3-0.9l0.2-1c0.1-0.3,0.1-0.6,0.2-1
		c0-0.3,0.1-0.6,0.1-1l0.1-1c0-0.3,0-0.6,0-1c0-0.6,0-1.3,0-2C108.5,28,108.3,26.7,108,25.3z"/>
	<path class="st5" d="M113.1,25.9c0.8,1.1,1.3,2.4,1.6,3.8c0.3,1.4,0.4,2.8,0.2,4.2c-0.2,1.4-0.5,2.8-1.2,4c-0.3,0.6-0.7,1.2-1,1.8
		c-0.4,0.6-0.9,1.1-1.3,1.6c0.2-0.7,0.5-1.2,0.8-1.9c0.2-0.6,0.5-1.2,0.7-1.9c0.1-0.3,0.2-0.6,0.3-0.9l0.2-1c0.1-0.3,0.1-0.6,0.2-1
		c0-0.3,0.1-0.6,0.1-1l0.1-1c0-0.3,0-0.6,0-1c0-0.6,0-1.3,0-2C113.7,28.6,113.5,27.2,113.1,25.9z"/>
	<path class="st2" d="M118.2,26.4c0.8,1.1,1.3,2.4,1.6,3.8c0.3,1.4,0.4,2.8,0.2,4.2c-0.2,1.4-0.5,2.8-1.2,4c-0.3,0.6-0.7,1.2-1,1.8
		c-0.4,0.6-0.9,1.1-1.3,1.6c0.2-0.7,0.5-1.2,0.8-1.9c0.2-0.6,0.5-1.2,0.7-1.9c0.1-0.3,0.2-0.6,0.3-0.9l0.2-1c0.1-0.3,0.1-0.6,0.2-1
		c0-0.3,0.1-0.6,0.1-1l0.1-1c0-0.3,0-0.6,0-1c0-0.6,0-1.3,0-2C118.8,29.1,118.6,27.8,118.2,26.4z"/>
	<g>
		<path class="st5" d="M90.1,127.8c-5.8,2.6-12.1,4.1-18.3,4.3c-6.1,0.2-12.2-0.7-17.6-2.9c-9.4-3.7-19.9-16.6-22.1-27.2
			c-0.1-0.4-0.1-0.7,0.1-0.9c0-0.2,0-0.3,0.1-0.5c0.3-0.5,0.8-0.7,1.3-0.4c4.2,2.2,11.5,5.6,13.6,5.5c2.6-0.2,7.1-1.7,20.1-8.2
			c0.2-0.1,0.4-0.2,0.6-0.3c0.3-0.1,0.5-0.3,0.7-0.4c3.6-1.9,5.1-3,5.4-3.5c-1.7,0.3-3.6,0.4-5.6,0.4c-5.4,0-11.9-0.9-19.4-2.8
			c-9.7-2.4-17.5-5.5-17.6-5.6c-0.5-0.2-0.7-0.7-0.5-1.2c0.2-0.5,0.7-0.7,1.2-0.5c0.3,0.1,20.5,8.1,36.1,8.2c7.2-0.3,15-3.1,15-3.1
			c-3.8,4-8.2,6.9-11.6,8.8c-0.1,0.1-0.3,0.2-0.4,0.2c-1.5,0.7-2.8,1.4-4.1,2h0c-12.4,6.2-16.9,7.6-19.7,7.8
			c-2.7,0.2-10.2-3.4-13.4-5c2.3,8.2,12.3,21.2,21,24.6c10.5,4.1,23.3,3.6,34.2-1.4c18.8-8.6,27.8-25,24.2-43.2
			c-0.1-0.6,0.5-0.8,1.1-0.9c0.6-0.1,1.2,0.3,1.3,0.9C119.6,101.8,110,118.7,90.1,127.8z"/>
	</g>
	<path d="M145.3,20.3"/>
	<path class="st2" d="M139.9,19c-0.1,0-0.1-0.1-0.2-0.1c0,0,0,0,0,0C120,6.1,85.1-6.3,56.3,13.8c-9.8,6.8-16.7,17.6-19.9,31.1
		c-0.2,1-0.2,1.8,0.2,2.4c0.5,0.8,1.4,0.9,1.4,0.9l0.1,0c24.5,7,36.6,3.3,50-15.5c0.3-0.4,0.9-0.5,1.4-0.2c0.4,0.3,0.5,0.9,0.2,1.4
		c-0.9,1.2-1.7,2.3-2.6,3.4c0,0.1,0.1,0.2,0.1,0.3c1.3,5.5-0.1,11.9-3.6,17.5c-3.8,6-9.7,10.2-16.1,11.6c-0.9,0.3-2.8,1.1-3.1,2.1
		c-0.2,0.6,0.4,1.3,0.9,1.8c2.3,2.2,14.9,10.3,30.6,6.7c4.8-1.1,13.8-1.6,17.6,1.9c1.4,1.2,2.5,2.9,2.2,4.7
		c-0.1,0.5-0.2,0.7-0.7,0.7c-0.2,0-0.4,0.1-0.5,0.1c-0.1,0-0.2,0.1-0.3,0.1c-0.1,0,0,0-0.1,0c0-0.1-0.3-0.3-0.3-0.3
		c-0.2-0.8-0.4-1.4-0.6-2.2c-0.1-0.3-0.2-0.5-0.4-0.8c-0.6-1-1.6-1.8-2.7-2.2c-1.1-0.5-2.4-0.7-3.6-0.8c-1.4-0.1-2.8-0.1-4.2-0.1
		c-1.4,0.1-2.9,0.2-4.3,0.5c-0.6,0.1-1.1,0.2-1.6,0.3c-15,3.5-28.6-3.4-32.4-7.2c-1.3-1.3-1.8-2.5-1.5-3.8c0.6-2.4,4.1-3.4,4.5-3.5
		l0,0c6-1.3,11.4-5.2,14.9-10.8c3-4.7,4.3-10.1,3.6-14.8c-5.9,6.9-11.7,11-18.3,13c-3.7,1.1-7.7,1.5-12.2,1.2
		c-5-0.3-10.8-1.4-17.5-3.3c-0.4-0.1-1.8-0.4-2.6-1.8c-0.7-1-0.9-2.4-0.5-3.9c3.3-14,10.5-25.1,20.7-32.2c7.8-5.5,16.6-8.9,26-10.3
		C89.3,0.7,98,1,106.9,2.9c20.1,4.3,35.4,15,39.6,18.2c0,0,0.1,0,0.1,0.1c2.5,1.8,5,3.8,6.4,5.4C157.2,31.9,144.5,22,139.9,19z"/>
	<path class="st2" d="M158.9,100.2c-0.2,0.5-1.7,4.8-5.4,9.2c0,0,0,0,0,0s-5.3,7.4-16.1,10c-1.1,0.3-1.6,0.5-1.7,0.5
		c0.2-0.2,3.5-2,4-8.1c0-0.7,0-1.5,0.1-2.3v0c0-0.1,0-0.2,0-0.3c-0.1-6.6-8-15.7-8-15.8c-0.4-0.5-0.4-1.1,0.1-1.5
		c0.5-0.4,1.1-0.4,1.5,0.1c0.4,0.4,8.8,10.1,8.6,17.6c-0.1,3.6-0.4,5.1,0,5.3c0.4,0.2,3.2-0.3,7.2-4.1c5.4-5,7.5-11.2,7.6-11.3
		l0-0.1c0-0.1,5-12.4,1.5-21.1c-0.2-0.6,0-1.2,0.6-1.4c0.6-0.2,1.2,0,1.4,0.6C164.2,86.9,159.3,99.3,158.9,100.2z"/>
	<g>
		<g>
			<path class="st5" d="M87.3,159.8l-11.2,5.1c0,0,0,0,0,0c-3.1,1.8-17.2,7.4-13.1,4.6c4.3-3,4.1-9.2,4.1-9.2s0,0,0,0
				c0-0.8,0-1.7,0-2.4c0-0.5,0.4-1,1-1c0.5,0,1,0.4,1,1c0,1,0.1,5.3-0.4,7.7c1.2-0.3,3.4-1,5.2-1.8l12.6-5.8c0.5-0.2,1.1,0,1.3,0.5
				C88,159,87.8,159.6,87.3,159.8z"/>
		</g>
	</g>
	<g>
		<path class="st4" d="M69.5,157.9c-0.1,0.5-0.5,0.9-1,0.9c0,0-0.1,0-0.1,0c-0.4,0-10-1.1-21.7-10.6c-10.7-8.7-24.5-24.2-33.1-59.3
			c-1-0.8-10-8.1-11.1-11.2C1.5,75,1,70.2,1.7,56.1c0-0.1,0-0.2,0-0.2S1.4,45.2,6.1,35c0,0,0.2,8,2.5,14.7c0,0,0,0,0,0
			c3.3,7.1,10.7,20.8,23.8,34.1c0.4,0.4,0.4,0.9,0,1.3c-0.2,0.2-0.4,0.3-0.7,0.3c-0.2,0-0.5-0.1-0.7-0.3C13.4,67.2,6,48.6,4.9,45.7
			c-0.3,0.9-0.7,2.7-1,5.8h0C2.9,69,3.4,74.3,4.3,77C4.9,79,11,84.4,14.7,87.3c0.3,0.2,0.4,0.6,0.3,1c4.7,19.1,13.9,42.8,32.7,58.2
			c11.3,9.2,20.7,10.3,20.8,10.3C69.1,156.8,69.5,157.3,69.5,157.9z"/>
	</g>
</g>
</svg>
