<?xml version="1.0" encoding="utf-8"?>
<!-- Generator: Adobe Illustrator 23.0.3, SVG Export Plug-In . SVG Version: 6.00 Build 0)  -->
<svg version="1.1" id="Layer_1" xmlns="http://www.w3.org/2000/svg" xmlns:xlink="http://www.w3.org/1999/xlink" x="0px" y="0px"
	 viewBox="0 0 796.5 129.7" style="enable-background:new 0 0 796.5 129.7;" xml:space="preserve">
<style type="text/css">
	.st0{fill:#E83A2C;}
	.st1{fill:#38B9F9;}
	.st2{fill:#D2DDE8;}
	.st3{fill:#D7B328;}
	.st4{fill:#11529E;}
	.st5{fill:#EE3A34;}
	.st6{fill:#F37C20;}
	.st7{fill:#3CB8EA;}
</style>
<g>
	<g>
		<g>
			<g>
				<path class="st0" d="M187.1,64.1c-0.3-0.3-0.5-0.8-0.7-1.2L201,48.4l-1,6c1.5,1.7,3.3,3.1,5.3,4.1c2.1,1,4.2,1.5,6.5,1.5
					c1.5,0,2.8-0.2,4.1-0.4c1.2-0.2,2.5-0.8,3.6-1.8c1.3-0.9,2-2,2.2-3.2c0.2-1.3-0.1-2.5-1-3.8c-0.6-0.8-1.6-1.6-2.9-2.4
					c-1.3-0.8-2.6-1.5-4-2.1s-2.8-1.2-4.2-1.7s-2.4-0.9-3.3-1.3c-2.6-1-5.1-2-7.5-3s-4.7-2.7-6.7-4.8c-0.1-0.1-0.3-0.2-0.4-0.3
					c-0.3-0.2-0.5-0.5-0.7-0.7c-0.2-0.3-0.4-0.5-0.7-0.7c-0.2-0.3-0.4-0.6-0.6-0.8c-0.2-0.3-0.4-0.5-0.6-0.8c-0.8-1.2-1.5-2.6-2-4
					c-0.3-0.7-0.5-1.5-0.7-2.2s-0.3-1.5-0.4-2.3c-0.1-0.6-0.1-1.1-0.1-1.6s0-1.1,0-1.6c0-0.4,0.1-0.9,0.1-1.3c0-0.5,0.1-0.9,0.2-1.4
					c0.1-0.3,0.2-0.7,0.2-1.1c0.1-0.4,0.2-0.8,0.3-1.2c0.2-0.3,0.3-0.7,0.4-1.1c0.1-0.4,0.2-0.8,0.4-1.1c0.8-1.5,1.6-2.9,2.5-4.1
					c0.4-0.4,0.7-0.8,1-1.2c0.3-0.4,0.6-0.8,1-1.1c1.1-1,2.2-1.9,3.4-2.7l0.2-0.2c0.1,0,0.1,0,0.2,0c0,0,0.1,0,0.2,0
					c1.2-0.8,2.6-1.4,4.2-2c0.6-0.2,1.1-0.3,1.6-0.5c0.5-0.1,1-0.3,1.6-0.4c1.3-0.3,2.6-0.5,3.9-0.7c0.6-0.1,1.2-0.1,1.8-0.1
					s1.2,0,1.9,0c0.6,0,1.2,0,1.8,0s1.2,0,1.9,0.1l1.8,0.1c0.3,0,0.7,0.1,0.9,0.1c0.3,0.1,0.6,0.1,0.9,0.1c0.6,0.1,1.2,0.2,1.9,0.3
					c0.6,0.1,1.2,0.3,1.9,0.4c1.2,0.3,2.5,0.7,3.7,1.2s2.5,1.1,3.7,1.8c1.1,0.6,2.2,1.5,3.4,2.4c1,0.8,2,1.8,2.9,2.9
					c1,1.1,0.3,0.1,0.9,1.1c0.4,0.7-0.4-0.9,0,0l-15,14.8l1.4-6c-1.5-1.7-3.3-3-5.3-3.9c-2.1-0.9-4.2-1.4-6.4-1.4
					c-1.5,0-2.8,0.1-4.1,0.3c-1.2,0.3-2.5,0.8-3.7,1.7s-1.9,2-2.1,3.3c-0.2,1.3,0.1,2.6,1,3.8c0.6,0.8,1.6,1.6,2.8,2.4
					s2.6,1.4,4,2.1c1.4,0.6,2.8,1.2,4.2,1.7s2.5,0.9,3.3,1.3c2.6,1,5.1,2,7.5,3.1c2.4,1,4.7,2.6,6.7,4.8c1.3,1.3,2.3,2.5,3.1,3.8
					c0.8,1.2,1.4,2.4,1.8,3.6c0.4,1.1,0.7,2.2,0.9,3.3c0.1,1,0.2,1.9,0.3,2.6c0,0.4,0.1,0.7,0.1,1.1c0,0.4,0,0.7,0,1.2
					c0,0.3-0.1,0.7-0.1,1.1c-0.1,0.4-0.2,0.9-0.3,1.3c0,0.4-0.1,0.8-0.2,1.2c-0.1,0.4-0.2,0.7-0.3,1.1c-0.3,1-0.6,1.7-0.9,2.2
					c-0.7,1.6-1.5,2.9-2.5,4.1c-0.5,0.8-1.2,1.6-1.9,2.3c-1.1,1-2.2,2-3.6,2.8c-0.1,0-0.1,0-0.1,0s0,0-0.1,0s-0.1,0-0.1,0s0,0-0.1,0
					c-0.7,0.4-1.4,0.8-2.1,1.1c-0.7,0.3-1.5,0.6-2.3,0.9c-1.1,0.4-2.2,0.7-3.1,0.9c-0.6,0.1-1.3,0.2-2,0.3c-0.7,0.1-1.3,0.2-2,0.3
					c-0.6,0.1-1.3,0.2-1.9,0.2c-0.6,0-1.3,0.1-1.9,0.1c-0.6,0-1.3,0-1.9,0s-1.3-0.1-1.9-0.1l-1.9-0.1c-0.3,0-0.6,0-0.8-0.1
					c-0.3,0-0.6-0.1-0.9-0.2c-0.6-0.1-1.3-0.2-1.9-0.3c-0.7-0.1-1.3-0.3-1.9-0.5c-1.3-0.3-2.5-0.7-3.6-1.2c-1.2-0.5-2.5-1.1-3.7-1.8
					c-0.6-0.4-1.2-0.8-1.7-1.2c-0.6-0.4-1.1-0.8-1.6-1.3c-1-0.8-2-1.8-2.9-2.9L187.1,64.1z"/>
				<path class="st0" d="M321.9,59.1L334.1,73h-54.6l3.9-5.6V6.7l-3.9-4.8h54.6l-12.2,13.9h-22.4V31h24.4l-10.8,12.1h-13.6v16.1
					L321.9,59.1L321.9,59.1z"/>
				<path class="st0" d="M396.5,73.1h-23.1L376,69l-16.4-26.3h-0.1v24.7l4.9,5.8h-24.9L344,69V6.4l-4.7-4.6h4.7l29,0.1
					c3.5,0,6.6,0.6,9.3,1.8c2.7,1.2,5.1,3.4,7,6.4c1.8,2.8,2.8,5.8,3.2,9c0.4,3.2,0.1,6.4-0.9,9.4c-0.5,1.6-1.1,3.1-1.9,4.5
					c-0.8,1.5-1.7,2.8-2.9,4c-1.1,1.2-2.4,2.3-3.7,3.2c-1.4,0.9-2.9,1.5-4.5,1.9c-0.4,0.1-0.8,0.2-1.2,0.3c-0.4,0.1-0.8,0.1-1.2,0.1
					L396.5,73.1z M359.5,31.4h9.6h0.6c1.1-0.1,2.1-0.4,3-1s1.6-1.3,2.2-2.2c0.6-0.9,1.1-1.9,1.5-3s0.6-2.1,0.6-3.2s-0.2-2.2-0.6-3.2
					c-0.4-1.1-0.9-2-1.5-2.8s-1.4-1.5-2.4-2s-2-0.8-3.2-0.8h-9.8L359.5,31.4L359.5,31.4z"/>
				<path class="st0" d="M458.9,73.1h-23l2.5-4.1L422,42.8h-0.1v24.7l4.9,5.8h-24.9l4.5-4.2V6.5l-4.7-4.6h4.7l29,0.1
					c3.5,0,6.6,0.6,9.3,1.8c2.7,1.2,5.1,3.4,7,6.4c1.8,2.8,2.8,5.8,3.2,9c0.4,3.2,0.1,6.4-0.9,9.4c-0.5,1.6-1.1,3.1-1.9,4.5
					c-0.8,1.5-1.7,2.8-2.9,4c-1.1,1.2-2.4,2.3-3.7,3.2c-1.4,0.9-2.9,1.5-4.5,1.9c-0.4,0.1-0.8,0.2-1.2,0.3c-0.4,0.1-0.8,0.1-1.2,0.1
					L458.9,73.1z M421.9,31.4h9.6h0.6c1.1-0.1,2.1-0.4,3-1s1.6-1.3,2.2-2.2c0.6-0.9,1.1-1.9,1.5-3s0.6-2.1,0.6-3.2s-0.2-2.2-0.6-3.2
					c-0.4-1.1-0.9-2-1.5-2.8s-1.4-1.5-2.4-2s-2-0.8-3.2-0.8h-9.8L421.9,31.4L421.9,31.4z"/>
				<path class="st0" d="M525.1,67.6L502.7,1.9h-17.5l2.6,2.8l-22.4,64.5l-4.4,4.1h25.1l-4.1-4.9l0,0l5.4-14.2h16.3l4.8,15.9
					l-3.5,3.3h25.1L525.1,67.6z M490.6,43.2l5-16.6l4.8,16.6H490.6z"/>
				<g>
					<path class="st0" d="M665,67.3L642.6,1.6h-17.5l2.6,2.8l-22.4,64.4l-4.4,4.1H626l-4.1-4.9l0,0l5.4-14.2h16.3l4.8,15.9l-3.5,3.3
						H670L665,67.3z M630.5,42.9l5-16.6l4.8,16.6H630.5z"/>
					<path class="st0" d="M730.2,72.9h-23.1l2.6-4.1l-16.4-26.3h-0.1v24.7L698,73h-24.9l4.5-4.2V6.2L673,1.6h4.7l29,0.1
						c3.5,0,6.6,0.6,9.3,1.8s5.1,3.4,7,6.4c1.8,2.8,2.8,5.8,3.2,9s0.1,6.4-0.9,9.4c-0.5,1.6-1.1,3.1-1.9,4.5c-0.8,1.5-1.7,2.8-2.9,4
						c-1.1,1.2-2.4,2.3-3.7,3.2c-1.4,0.9-2.9,1.5-4.5,1.9c-0.4,0.1-0.8,0.2-1.2,0.3s-0.8,0.1-1.2,0.1L730.2,72.9z M693.3,30.9h9.7
						h0.6c1.1-0.1,2.1-0.4,3-1s1.6-1.3,2.3-2.2c0.6-0.9,1.1-1.9,1.5-3s0.6-2.2,0.6-3.2c0-1.1-0.2-2.2-0.6-3.2
						c-0.4-1.1-0.9-2-1.5-2.8c-0.7-0.8-1.5-1.5-2.4-2c-1-0.5-2-0.8-3.2-0.8h-9.9L693.3,30.9L693.3,30.9z"/>
					<path class="st0" d="M796.5,72.8h-24l2.4-2.8l-19-25.2l-0.1,24v4h-21.7l4.2-3.6l0.2-59.1v-3L734.1,2h21.7l-0.1,28.3v1.4
						l18.1-27L771.6,2h20.5l-22.6,35.6L796.5,72.8z"/>
					<path class="st0" d="M607.2,20.1c-0.2-1.9-0.6-3.7-1.1-5.4s-1.2-3.3-2.1-4.6c-2-3-4.3-5.2-7-6.4s-5.8-1.8-9.2-1.8l-28.7-0.2
						h-4.6l4.6,4.6V68l-3.5,4.8h23.7l-4.8-5.8V43.8h9.5c1.6,0,3.2,0,4.7,0.2c1.5,0.1,3.1-0.1,4.7-0.5c3.2-0.8,5.9-2.4,8.1-4.7
						c2.2-2.4,3.8-5,4.7-8.1c0.5-1.5,0.8-3.1,0.9-5C607.4,23.8,607.4,22,607.2,20.1z M592.7,25.8c-0.4,1.2-0.9,2.2-1.6,3.2
						c-0.7,0.9-1.5,1.7-2.4,2.4c-0.9,0.6-2,1-3.2,1h-0.7h-0.2l0,0H584h-9.5l0,0V13l0,0h9.7l0,0h0.8c1.2,0,2.4,0.3,3.4,0.8
						s1.9,1.3,2.6,2.1c0.7,0.9,1.2,1.9,1.6,3c0.4,1.1,0.6,2.3,0.6,3.5C593.3,23.5,593.1,24.7,592.7,25.8z"/>
				</g>
				<polygon class="st0" points="250.1,69.7 250.1,31.9 250.1,31.9 250.1,4.4 247.5,1.6 266.5,1.6 266.4,20.8 266.5,20.8 266.5,68 
					270,73.1 247.5,73.1 				"/>
			</g>
			<g>
				<path class="st1" d="M190.3,89.9h19.2v3.8h-15.1v8.8h14.1v3.8h-14.1v9.5h15.9v3.8h-19.9L190.3,89.9L190.3,89.9z"/>
				<path class="st1" d="M214.9,87.9h3.8v31.7h-3.8V87.9z"/>
				<path class="st1" d="M227.1,111.1c0,0.9,0.2,1.7,0.6,2.4c0.4,0.7,0.9,1.3,1.5,1.8s1.3,0.9,2.1,1.2c0.8,0.3,1.6,0.4,2.5,0.4
					c1.2,0,2.2-0.3,3.1-0.8c0.9-0.5,1.7-1.3,2.4-2.2l2.9,2.2c-2.1,2.7-5,4.1-8.8,4.1c-1.6,0-3-0.3-4.3-0.8s-2.3-1.3-3.2-2.2
					s-1.6-2-2-3.3s-0.7-2.6-0.7-4.1s0.3-2.9,0.8-4.1c0.5-1.3,1.2-2.4,2.1-3.3c0.9-0.9,2-1.7,3.2-2.2c1.3-0.5,2.6-0.8,4.1-0.8
					c1.8,0,3.3,0.3,4.5,0.9s2.2,1.4,3,2.4s1.3,2.1,1.7,3.4c0.3,1.2,0.5,2.5,0.5,3.8v1.3h-16V111.1z M239,108c0-0.8-0.2-1.6-0.4-2.3
					c-0.2-0.7-0.6-1.3-1.1-1.8s-1.1-0.9-1.8-1.2c-0.7-0.3-1.5-0.4-2.5-0.4c-0.9,0-1.8,0.2-2.5,0.5c-0.8,0.4-1.4,0.8-2,1.4
					c-0.5,0.6-0.9,1.2-1.2,1.9c-0.3,0.7-0.4,1.4-0.4,2L239,108L239,108z"/>
				<path class="st1" d="M247.1,99.7h3.5v3.1h0.1c0.1-0.3,0.3-0.6,0.7-1c0.3-0.4,0.8-0.8,1.3-1.2c0.5-0.4,1.2-0.7,1.9-1
					s1.6-0.4,2.5-0.4c1.5,0,2.7,0.3,3.7,0.9s1.8,1.5,2.5,2.8c0.6-1.2,1.6-2.2,2.7-2.8c1.2-0.6,2.4-0.9,3.6-0.9
					c1.5,0,2.8,0.3,3.8,0.8s1.7,1.2,2.3,2c0.6,0.8,0.9,1.8,1.2,2.8s0.3,2.1,0.3,3.2v11.6h-3.8v-11.1c0-0.8,0-1.5-0.1-2.2
					s-0.3-1.3-0.6-1.8s-0.7-1-1.3-1.3c-0.6-0.3-1.3-0.5-2.2-0.5c-1.8,0-3.1,0.6-3.9,1.7s-1.2,2.6-1.2,4.3v10.9h-3.8v-10.4
					c0-1,0-1.8-0.1-2.6c-0.1-0.8-0.3-1.5-0.6-2c-0.3-0.6-0.7-1-1.3-1.3c-0.5-0.3-1.3-0.5-2.2-0.5c-0.7,0-1.3,0.1-2,0.4
					c-0.6,0.3-1.2,0.7-1.7,1.2s-0.9,1.2-1.1,2c-0.3,0.8-0.4,1.8-0.4,2.9v10.3h-3.8V99.7z"/>
				<path class="st1" d="M284.9,111.1c0,0.9,0.2,1.7,0.6,2.4c0.4,0.7,0.9,1.3,1.5,1.8s1.3,0.9,2.1,1.2c0.8,0.3,1.6,0.4,2.5,0.4
					c1.2,0,2.2-0.3,3.1-0.8s1.7-1.3,2.4-2.2l2.9,2.2c-2.1,2.7-5,4.1-8.8,4.1c-1.6,0-3-0.3-4.3-0.8s-2.3-1.3-3.2-2.2s-1.6-2-2-3.3
					s-0.7-2.6-0.7-4.1s0.3-2.9,0.8-4.1c0.5-1.3,1.2-2.4,2.1-3.3s2-1.7,3.2-2.2c1.3-0.5,2.6-0.8,4.1-0.8c1.8,0,3.3,0.3,4.5,0.9
					s2.2,1.4,3,2.4s1.3,2.1,1.7,3.4c0.3,1.2,0.5,2.5,0.5,3.8v1.3h-16V111.1z M296.8,108c0-0.8-0.2-1.6-0.4-2.3
					c-0.2-0.7-0.6-1.3-1.1-1.8s-1.1-0.9-1.8-1.2c-0.7-0.3-1.5-0.4-2.5-0.4c-0.9,0-1.8,0.2-2.5,0.5c-0.8,0.4-1.4,0.8-2,1.4
					c-0.5,0.6-0.9,1.2-1.2,1.9c-0.3,0.7-0.4,1.4-0.4,2L296.8,108L296.8,108z"/>
				<path class="st1" d="M304.9,99.7h3.8v3.1h0.1c0.5-1.1,1.3-1.9,2.5-2.6s2.5-1,4.1-1c1,0,1.9,0.1,2.7,0.4s1.6,0.7,2.3,1.4
					s1.2,1.4,1.6,2.4s0.6,2.1,0.6,3.4v12.8h-3.8v-11.7c0-0.9-0.1-1.7-0.4-2.4c-0.3-0.7-0.6-1.2-1-1.6s-0.9-0.7-1.4-0.9
					c-0.5-0.2-1.1-0.3-1.7-0.3c-0.8,0-1.5,0.1-2.2,0.4s-1.3,0.7-1.8,1.2s-0.9,1.2-1.2,2.1s-0.4,1.8-0.4,3v10.2h-3.8L304.9,99.7
					L304.9,99.7z"/>
				<path class="st1" d="M338.5,103h-5.4v9c0,0.6,0,1.1,0,1.7c0,0.5,0.1,1,0.3,1.5c0.2,0.4,0.5,0.8,0.8,1c0.4,0.3,0.9,0.4,1.7,0.4
					c0.4,0,0.9,0,1.4-0.1s0.9-0.2,1.3-0.5v3.4c-0.4,0.3-1,0.4-1.7,0.5s-1.3,0.1-1.7,0.1c-1.5,0-2.6-0.2-3.4-0.6s-1.4-0.9-1.8-1.6
					c-0.4-0.6-0.6-1.4-0.7-2.2c-0.1-0.8-0.1-1.6-0.1-2.4V103h-4.4v-3.3h4.4v-5.6h3.8v5.6h5.4v3.3H338.5z"/>
				<path class="st1" d="M343,102.2c1.1-1,2.3-1.7,3.7-2.2c1.4-0.5,2.8-0.7,4.2-0.7c1.5,0,2.7,0.2,3.8,0.5c1,0.4,1.9,0.9,2.6,1.5
					s1.2,1.3,1.5,2.1c0.3,0.8,0.5,1.6,0.5,2.5V116c0,0.7,0,1.3,0,1.9s0.1,1.1,0.1,1.7H356c-0.1-1-0.1-2-0.1-3h-0.1
					c-0.8,1.3-1.8,2.2-3,2.7c-1.1,0.5-2.5,0.8-4,0.8c-0.9,0-1.8-0.1-2.6-0.4s-1.6-0.6-2.2-1.1s-1.1-1.1-1.5-1.9
					c-0.4-0.7-0.5-1.6-0.5-2.6c0-1.3,0.3-2.4,0.9-3.2c0.6-0.9,1.4-1.6,2.3-2.1s2.2-0.9,3.5-1.2c1.3-0.2,2.7-0.4,4.3-0.4h2.8v-0.8
					c0-0.5-0.1-1-0.3-1.5c-0.2-0.5-0.5-1-0.9-1.4s-0.9-0.7-1.5-1c-0.6-0.2-1.3-0.4-2.1-0.4c-0.7,0-1.4,0.1-1.9,0.2s-1,0.3-1.5,0.5
					s-0.9,0.5-1.2,0.7s-0.7,0.5-1,0.8L343,102.2z M353.7,110.1c-0.9,0-1.8,0-2.7,0.1c-0.9,0.1-1.8,0.3-2.6,0.6
					c-0.8,0.3-1.4,0.7-1.9,1.2s-0.7,1.1-0.7,1.9c0,1.1,0.4,2,1.2,2.5c0.8,0.5,1.8,0.8,3.1,0.8c1,0,1.9-0.2,2.6-0.5s1.3-0.8,1.8-1.4
					c0.4-0.6,0.8-1.2,1-1.9c0.2-0.7,0.3-1.4,0.3-2v-1.3C355.8,110.1,353.7,110.1,353.7,110.1z"/>
				<path class="st1" d="M363.9,99.7h3.8v3.1h0.1c0.3-0.5,0.6-1,1-1.4s0.9-0.8,1.4-1.1s1.1-0.6,1.7-0.7c0.6-0.2,1.2-0.3,1.8-0.3
					c0.6,0,1.2,0.1,1.7,0.3l-0.2,4.1c-0.3-0.1-0.6-0.2-0.9-0.2c-0.3-0.1-0.6-0.1-0.9-0.1c-1.8,0-3.3,0.5-4.2,1.6
					c-1,1-1.5,2.6-1.5,4.8v10h-3.8V99.7z"/>
				<path class="st1" d="M377,99.7h4.4l5.9,15.5h0.1l5.6-15.5h4l-9.4,24.2c-0.3,0.9-0.7,1.7-1,2.4c-0.4,0.7-0.8,1.3-1.3,1.8
					c-0.5,0.5-1.1,0.9-1.8,1.2c-0.7,0.3-1.6,0.4-2.6,0.4c-0.6,0-1.1,0-1.7-0.1s-1.1-0.2-1.6-0.4l0.5-3.4c0.7,0.3,1.5,0.5,2.2,0.5
					c0.6,0,1.1-0.1,1.5-0.2c0.4-0.2,0.7-0.4,1-0.7c0.3-0.3,0.5-0.6,0.7-1s0.4-0.8,0.6-1.3l1.2-3.1L377,99.7z"/>
				<path class="st1" d="M413.9,113.4c0.7,1.1,1.7,1.9,2.8,2.4c1.1,0.5,2.3,0.8,3.5,0.8c0.7,0,1.4-0.1,2.1-0.3
					c0.7-0.2,1.3-0.5,1.9-0.9s1-0.9,1.4-1.6c0.4-0.6,0.5-1.3,0.5-2.1c0-1.1-0.4-2-1.1-2.6s-1.6-1.1-2.7-1.5s-2.3-0.8-3.5-1.2
					c-1.3-0.4-2.4-0.9-3.5-1.6s-2-1.6-2.7-2.7s-1.1-2.7-1.1-4.6c0-0.9,0.2-1.8,0.6-2.8s1-1.9,1.8-2.7c0.8-0.8,1.9-1.5,3.1-2
					s2.8-0.8,4.6-0.8c1.6,0,3.2,0.2,4.7,0.7s2.8,1.4,3.9,2.7l-3.3,3c-0.5-0.8-1.2-1.4-2.1-1.9s-2-0.7-3.1-0.7s-2,0.1-2.8,0.4
					c-0.7,0.3-1.3,0.7-1.8,1.1c-0.4,0.5-0.8,1-0.9,1.5s-0.3,1-0.3,1.5c0,1.3,0.4,2.2,1.1,2.9c0.7,0.7,1.6,1.2,2.7,1.6
					s2.2,0.8,3.5,1.1c1.3,0.3,2.4,0.8,3.5,1.4s2,1.4,2.7,2.4s1.1,2.4,1.1,4.2c0,1.4-0.3,2.7-0.8,3.9c-0.5,1.1-1.3,2.1-2.2,2.9
					c-0.9,0.8-2,1.4-3.3,1.8s-2.6,0.6-4,0.6c-1.9,0-3.7-0.3-5.4-1c-1.7-0.7-3.1-1.7-4.1-3.1L413.9,113.4z"/>
				<path class="st1" d="M448.7,105c-0.7-0.7-1.4-1.3-2.2-1.7c-0.8-0.4-1.7-0.6-2.7-0.6s-1.9,0.2-2.7,0.6c-0.8,0.4-1.4,0.9-1.9,1.6
					s-0.9,1.4-1.2,2.3c-0.3,0.9-0.4,1.7-0.4,2.7s0.2,1.8,0.5,2.6c0.3,0.8,0.7,1.5,1.3,2.2c0.6,0.6,1.2,1.1,2,1.4s1.7,0.5,2.6,0.5
					c1.1,0,2-0.2,2.7-0.6c0.8-0.4,1.5-0.9,2.1-1.7l2.7,2.7c-1,1.1-2.1,1.9-3.4,2.3c-1.3,0.5-2.7,0.7-4.1,0.7c-1.5,0-2.9-0.3-4.2-0.8
					c-1.3-0.5-2.4-1.2-3.3-2.1s-1.6-2-2.1-3.3s-0.8-2.7-0.8-4.2s0.3-2.9,0.8-4.2c0.5-1.3,1.2-2.4,2.1-3.3s2-1.6,3.3-2.2
					c1.3-0.5,2.7-0.8,4.3-0.8c1.5,0,2.8,0.3,4.2,0.8s2.5,1.3,3.5,2.4L448.7,105z"/>
				<path class="st1" d="M454.7,87.9h3.8v14.9h0.1c0.5-1.1,1.3-1.9,2.5-2.6s2.5-1,4.1-1c1,0,1.9,0.1,2.7,0.4s1.6,0.7,2.3,1.4
					s1.2,1.4,1.6,2.4s0.6,2.1,0.6,3.4v12.8h-3.8v-11.7c0-0.9-0.1-1.7-0.4-2.4c-0.3-0.7-0.6-1.2-1-1.6s-0.9-0.7-1.4-0.9
					c-0.5-0.2-1.1-0.3-1.7-0.3c-0.8,0-1.5,0.1-2.2,0.4s-1.3,0.7-1.8,1.2s-0.9,1.2-1.2,2.1s-0.4,1.8-0.4,3v10.2h-3.8L454.7,87.9
					L454.7,87.9z"/>
				<path class="st1" d="M475.4,109.7c0-1.5,0.3-2.8,0.8-4.1c0.5-1.3,1.3-2.4,2.2-3.3c1-1,2.1-1.7,3.4-2.2s2.7-0.8,4.2-0.8
					s2.9,0.3,4.2,0.8c1.3,0.5,2.4,1.3,3.4,2.2c1,1,1.7,2.1,2.2,3.3c0.5,1.3,0.8,2.6,0.8,4.1s-0.3,2.8-0.8,4.1
					c-0.5,1.3-1.3,2.4-2.2,3.3c-1,0.9-2.1,1.7-3.4,2.2s-2.7,0.8-4.2,0.8s-2.9-0.3-4.2-0.8s-2.4-1.3-3.4-2.2c-1-0.9-1.7-2-2.2-3.3
					C475.7,112.5,475.4,111.1,475.4,109.7z M479.4,109.7c0,1,0.2,1.9,0.5,2.8s0.7,1.6,1.3,2.2c0.6,0.6,1.2,1.1,2.1,1.4
					c0.8,0.3,1.7,0.5,2.7,0.5s1.9-0.2,2.7-0.5c0.8-0.3,1.5-0.8,2.1-1.4s1-1.3,1.3-2.2c0.3-0.9,0.5-1.8,0.5-2.8s-0.2-1.9-0.5-2.8
					s-0.7-1.6-1.3-2.2c-0.6-0.6-1.2-1.1-2.1-1.4c-0.8-0.3-1.7-0.5-2.7-0.5s-1.9,0.2-2.7,0.5c-0.8,0.3-1.5,0.8-2.1,1.4
					s-1,1.3-1.3,2.2C479.6,107.7,479.4,108.7,479.4,109.7z"/>
				<path class="st1" d="M499,109.7c0-1.5,0.3-2.8,0.8-4.1c0.5-1.3,1.3-2.4,2.2-3.3c1-1,2.1-1.7,3.4-2.2s2.7-0.8,4.2-0.8
					s2.9,0.3,4.2,0.8s2.4,1.3,3.4,2.2c1,1,1.7,2.1,2.2,3.3c0.5,1.3,0.8,2.6,0.8,4.1s-0.3,2.8-0.8,4.1c-0.5,1.3-1.3,2.4-2.2,3.3
					c-1,0.9-2.1,1.7-3.4,2.2c-1.3,0.5-2.7,0.8-4.2,0.8s-2.9-0.3-4.2-0.8s-2.4-1.3-3.4-2.2c-1-0.9-1.7-2-2.2-3.3
					C499.3,112.5,499,111.1,499,109.7z M503.1,109.7c0,1,0.2,1.9,0.5,2.8s0.7,1.6,1.3,2.2c0.6,0.6,1.2,1.1,2.1,1.4
					c0.8,0.3,1.7,0.5,2.7,0.5s1.9-0.2,2.7-0.5c0.8-0.3,1.5-0.8,2.1-1.4s1-1.3,1.3-2.2c0.3-0.9,0.5-1.8,0.5-2.8s-0.2-1.9-0.5-2.8
					s-0.7-1.6-1.3-2.2s-1.2-1.1-2.1-1.4c-0.8-0.3-1.7-0.5-2.7-0.5s-1.9,0.2-2.7,0.5c-0.8,0.3-1.5,0.8-2.1,1.4s-1,1.3-1.3,2.2
					C503.2,107.7,503.1,108.7,503.1,109.7z"/>
				<path class="st1" d="M523.5,87.9h3.8v31.7h-3.8V87.9z"/>
			</g>
		</g>
	</g>
	<g>
		<g>
			<path class="st2" d="M148,21.5c-0.2-0.1-0.3-0.2-0.4-0.3c-0.3-0.2-0.5-0.3-0.6-0.4c0,0,0,0-0.1,0c0,0,0,0,0,0
				c-7.9-5.7-16.4-8.2-22.9-9.3c-8.1-1.4-14.1-1-14.3-0.9c-0.1,0-0.2,0-0.3,0.1c-5.2-2.9-13.1-6.2-21.4-8C81.3,1.3,75.7,1,69.7,1.8
				c-6.9,1-13.3,3.1-19,7.1C43.2,14.1,38,22.3,35.5,32.6c-0.3,1.1-0.2,2.1,0.4,2.9c0.6,1,1.7,1.2,1.9,1.3c4.9,1.4,9.1,2.2,12.8,2.4
				c3.3,0.2,6.3-0.1,8.9-0.9c4.8-1.4,9.1-4.4,13.4-9.5c0.5,3.5-0.4,7.4-2.6,10.9c-2.6,4.1-6.6,7-10.9,7.9l0,0
				c-0.3,0.1-2.8,0.8-3.3,2.5c-0.2,0.9,0.1,1.8,1.1,2.8c2.8,2.7,12.7,7.8,23.7,5.3c0.4-0.1,0.8-0.2,1.2-0.2c1-0.2,2.1-0.3,3.1-0.4
				c1-0.1,2.1,0,3.1,0.1c0.9,0.1,1.8,0.3,2.6,0.6c0.8,0.3,1.6,0.9,2,1.6c0.1,0.2,0.2,0.4,0.3,0.6c0,0.1,0.1,0.2,0.1,0.3c0,0,0,0,0,0
				c0.2,0.9,0.3,1.7,0.4,2.6v0c0,0-0.1,0.1-0.1,0.1c-0.1,0.1-6.9,7.5-11.8,7.3c-0.7,0-1.5-0.2-2.4-0.4c-5.9-1.8-6.9-5.6-5.7-1.2
				c0.4,1.5,1.2,2.5,2.3,3.9c0.1,0.1,0.2,0.2,0.2,0.3c0,0,0,0,0,0c1,1.3,2.3,2.7,3.4,3.9c3.2,3.4,6.8,5.1,8.3,5.7
				c-3,3.8-7.2,7-12.4,9.4c-8,3.7-17.8,4.5-25.5,1.5C43.7,91.2,36,80.4,34.3,74.3c2.3,1.2,8.7,4.7,10.7,4.6
				c2.1-0.2,5.3-1.2,14.5-5.8h0c0.9-0.5,1.9-1,3-1.5c0.1-0.1,0.2-0.1,0.3-0.2c2.5-1.4,5.3-3.1,8.1-6c0,0-5.8,2.1-11,2.3
				c-10.8-0.1-24.8-5.4-26.3-6c-9.6-9.7-14.8-19.2-17.2-24.4c0,0-0.1-0.5-0.1-0.5c-1.7-4.9-1.7-10.8-1.7-10.8
				C11,33.6,11.5,41,11.5,41s0,0.1,0,0.2C11,51.5,11.3,55,12,57c0.8,2.3,7.4,7.6,8.1,8.2c6.3,25.7,16.4,37.1,24.3,43.5
				c7.4,6,13.7,7.4,15.4,7.7c0,0.4,0,0.8,0,1.2c0,0,0,0,0,0s0.1,4.5-3,6.7c-3,2.1,7.3-2,9.6-3.4h0l7.9-3.6c0.1,0,0.2,0,0.3,0
				c3.9-0.2,8.6-1.3,12.5-2.1c1.9-0.4,3.7-0.8,5.6-1.3h0c1.1,1.2,4.3,4.8,4.1,8.9c0,0,0,0,0,0c0,0.2,0,0.3,0,0.5v0
				c0,0.3,0,0.5-0.1,0.7c0,0,0,0,0,0c-0.9,3.2-6.6,3.8-1.9,3.2c4.4-0.6,7-3.5,7.6-4.2c0,0,0,0,0,0c3.2-3.3,5.9-9.5,4.9-15.4
				c4.1-2.2,8.6-4.6,12.3-7.8c16.7-14.6,22.6-40.6,15.7-61.6c-0.2-0.6-0.1-1-0.5-1.4c5.4-4.1,11.1-5,15.1-5.4
				c7.6-0.3,10,2.5,10.1,2.7C157.8,28.5,150.6,23.5,148,21.5z M88.1,82.9C88.1,82.9,88.2,82.9,88.1,82.9l0.2,0.1
				C88.3,83,88.2,83,88.1,82.9z"/>
		</g>
		<g>
			<path class="st3" d="M102.3,123.2C102.3,123.2,102.3,123.2,102.3,123.2c-0.6,0.7-3.2,3.6-7.6,4.2c-4.7,0.6,1,0,1.9-3.2
				c0,0,0,0,0,0c0.1-0.2,0.1-0.5,0.1-0.7v0c0-0.2,0-0.3,0-0.5c0,0,0,0,0,0c0.2-5-4.5-9.3-4.5-9.3c-0.3-0.3-0.3-0.7,0-1
				c0.3-0.3,0.7-0.3,1,0c0.2,0.2,5.4,5,5,10.7c0,0,0,0.1,0,0.1c0,0,0,0,0,0c0,0,0,0.1,0,0.1c0,0.1,0,0.3,0,0.4c0,0.1,0,0.2-0.1,0.3
				c0,0.2,0,0.4,0,0.5c0.2,0,0.7-0.2,1.3-0.7c0,0,0.1-0.1,0.1-0.1c0.4-0.3,0.9-0.7,1.4-1.2c2.7-2.6,6.9-8.7,5.7-14.8
				c-0.1-0.4,0.2-0.7,0.5-0.8c0.4-0.1,0.7,0.2,0.8,0.5C108.9,113.8,105.5,119.8,102.3,123.2z"/>
		</g>
		<path class="st3" d="M103.9,88.6c-1.3,1.7-2.7,3.1-4,4c-1,0.7-2,1.4-3,2c-9.4,5.7-18.1,6.7-25.5,6.3c-5.6-0.3-13.7-2.1-17.7-3.9
			c-10.6-4.8-13.8-10.2-14.1-10.6c-0.3-0.3-0.9-1-0.6-1.3c0.3-0.3,0.9,0.3,1.1,0.6c0.1,0.1,2.6,4.7,12.9,9.3c13.5,6,31.6,6,45.2-3.2
			c0,0,0,0,0,0C101.2,89.8,106.5,85.1,103.9,88.6z"/>
		<g>
			<path class="st4" d="M64.8,17.2c-0.3-0.2-0.8-0.2-1,0.1c-2,2.5-4,3.8-6,3.8c-2.9,0-4.9-2.7-4.9-2.7c-0.2-0.3-0.7-0.4-1-0.2
				c-0.3,0.2-0.4,0.7-0.2,1c0.1,0.1,2.3,3.1,5.8,3.3c0.1,0,0.2,0,0.3,0c2.5,0,4.9-1.4,7.2-4.4C65.2,17.9,65.1,17.5,64.8,17.2z"/>
		</g>
		<g>
			<g>
				<path class="st5" d="M76.3,70.7c-0.1,0.3,1.7,2.6,4.5,5.5c3.7,4,8.2,5.5,8.3,5.5c0.4,0.1,0.6,0.6,0.5,1
					c-0.1,0.3-0.4,0.5-0.7,0.5c-0.1,0-0.2,0-0.3,0c0,0-0.2-0.1-0.5-0.2c0,0,0,0-0.1,0c0,0,0,0,0,0c-1.4-0.6-5.1-2.3-8.4-5.7
					c-1.1-1.2-2.4-2.6-3.4-3.9c0,0,0,0,0,0c-0.1-0.1-0.2-0.2-0.2-0.3c-1-1.4-1.8-2.8-2.3-4.3c-1.3-4.4-0.3-0.6,5.7,1.2
					c0.8,0.2,1.6,0.4,2.4,0.4c4.9,0.1,11.7-6.8,11.8-6.9c0.3-0.3,0.8-0.3,1.1,0.1c0.3,0.3,0.3,0.8-0.1,1.1
					c-0.3,0.3-7.4,7.4-12.9,7.3C79,71.8,76.4,70.4,76.3,70.7z"/>
			</g>
		</g>
		<g>
			<g>
				<path class="st6" d="M160,34.4c-0.1-0.2-2.5-3-10.1-2.7c-4.2,0.4-9.8,1.6-15.3,6c-0.1,0.1-0.3,0.2-0.5,0.2
					c-0.2,0-0.4-0.1-0.5-0.3c-0.2-0.3-0.2-0.8,0.1-1c7.3-5.8,14.8-6.3,18.9-6.6c0.9-0.1,1.8-0.1,2.4-0.2c0.1-0.1,0.1-0.3-0.3-0.8
					c-0.3-0.4-0.7-0.9-1.2-1.4c0,0,0,0,0,0c-1.2-1.2-2.7-2.5-3.6-3.3c-8.4-7.4-18.8-10.4-26.1-11.7c-7.9-1.4-14-0.9-14-0.9
					c-0.4,0-0.7-0.3-0.8-0.7c0-0.4,0.3-0.7,0.7-0.8c0.3,0,6.2-0.4,14.3,0.9c6.5,1.1,15.5,3.6,23.4,9.3c0,0,0,0,0,0c0,0,0,0,0.1,0
					c0.1,0.1,0.3,0.2,0.6,0.4c0.1,0.1,0.3,0.2,0.4,0.3C151,23.2,157.8,28.6,160,34.4z"/>
			</g>
		</g>
		<g>
			<path class="st3" d="M74.4,117.5c-0.4,0-1.1-0.3-1-0.7s0.2-0.8,0.6-0.9c21.6-2.1,41.5-10.3,53.9-27.8c1.5-2.1,4.2-7.8,5-10.2
				c2.3-6.5,3.7-12.7,4.1-19.6c0.3-6.3-0.9-14-3.4-19.9c-1.2-2.8,1.4-2.5,2.3,0.1c7,21,0.3,46.8-16.5,61.4
				c-6.1,5.3-12.9,9.2-20.4,12c-3.9,1.5-8.1,2.5-12.2,3.4C83,116.3,78.3,117.3,74.4,117.5z"/>
		</g>
		<path class="st5" d="M89.2,18.7c0.6,0.8,1,1.8,1.2,2.8c0.2,1,0.3,2,0.1,3.1c-0.2,1-0.4,2-0.9,2.9c-0.2,0.5-0.5,0.9-0.8,1.3
			c-0.3,0.4-0.6,0.8-1,1.2c0.2-0.5,0.4-0.9,0.6-1.4c0.2-0.5,0.4-0.9,0.5-1.4c0.1-0.2,0.1-0.5,0.2-0.7l0.2-0.7
			c0.1-0.2,0.1-0.5,0.1-0.7c0-0.2,0.1-0.5,0.1-0.7l0.1-0.7c0-0.2,0-0.5,0-0.7c0-0.5,0-1,0-1.4C89.6,20.7,89.5,19.7,89.2,18.7z"/>
		<path class="st7" d="M93,19.2c0.6,0.8,1,1.8,1.2,2.8c0.2,1,0.3,2,0.1,3.1c-0.2,1-0.4,2-0.9,2.9c-0.2,0.5-0.5,0.9-0.8,1.3
			c-0.3,0.4-0.6,0.8-1,1.2c0.2-0.5,0.4-0.9,0.6-1.4c0.2-0.5,0.4-0.9,0.5-1.4c0.1-0.2,0.1-0.5,0.2-0.7l0.2-0.7
			c0.1-0.2,0.1-0.5,0.1-0.7c0-0.2,0.1-0.5,0.1-0.7l0.1-0.7c0-0.2,0-0.5,0-0.7c0-0.5,0-1,0-1.4C93.4,21.1,93.2,20.1,93,19.2z"/>
		<path class="st4" d="M96.7,19.5c0.6,0.8,1,1.8,1.2,2.8c0.2,1,0.3,2,0.1,3.1c-0.2,1-0.4,2-0.9,2.9c-0.2,0.5-0.5,0.9-0.8,1.3
			c-0.3,0.4-0.6,0.8-1,1.2c0.2-0.5,0.4-0.9,0.6-1.4c0.2-0.5,0.4-0.9,0.5-1.4c0.1-0.2,0.1-0.5,0.2-0.7l0.2-0.7C97,26.5,97,26.2,97,26
			c0-0.2,0.1-0.5,0.1-0.7l0.1-0.7c0-0.2,0-0.5,0-0.7c0-0.5,0-1,0-1.4C97.1,21.5,97,20.5,96.7,19.5z"/>
		<g>
			<path class="st7" d="M76.1,93.9c-4.2,1.9-8.9,3-13.4,3.2c-4.5,0.2-8.9-0.5-12.9-2.1c-6.9-2.7-14.6-12.2-16.2-20
				c-0.1-0.3-0.1-0.5,0.1-0.7c0-0.1,0-0.2,0.1-0.4c0.2-0.4,0.6-0.5,1-0.3c3.1,1.6,8.5,4.1,10,4c1.9-0.2,5.2-1.3,14.7-6
				c0.2-0.1,0.3-0.2,0.5-0.2c0.2-0.1,0.4-0.2,0.5-0.3c2.7-1.4,3.8-2.2,4-2.6c-1.3,0.2-2.6,0.3-4.1,0.3c-4,0-8.7-0.7-14.2-2.1
				c-7.1-1.8-12.9-4.1-12.9-4.1c-0.3-0.1-0.5-0.5-0.4-0.9c0.1-0.3,0.5-0.5,0.9-0.4c0.2,0.1,15,5.9,26.4,6c5.3-0.2,11-2.3,11-2.3
				c-2.8,2.9-6,5-8.5,6.5c-0.1,0.1-0.2,0.1-0.3,0.2c-1.1,0.5-2.1,1-3,1.5h0c-9.1,4.5-12.4,5.6-14.5,5.8c-2,0.2-7.5-2.5-9.8-3.7
				c1.7,6,9,15.5,15.4,18c7.7,3,17.1,2.7,25.1-1C89.3,86.1,95.8,74,93.2,60.7c-0.1-0.4,0.4-0.6,0.8-0.6c0.4-0.1,0.9,0.2,0.9,0.6
				C97.7,74.8,90.6,87.2,76.1,93.9z"/>
		</g>
		<path d="M116.6,15.1"/>
		<path class="st4" d="M112.6,14.1c0,0-0.1-0.1-0.1-0.1c0,0,0,0,0,0C98,4.7,72.5-4.5,51.3,10.2c-7.2,5-12.3,12.9-14.6,22.8
			c-0.2,0.7-0.1,1.3,0.1,1.7c0.4,0.6,1,0.7,1,0.7l0.1,0c17.9,5.2,26.9,2.4,36.7-11.3c0.2-0.3,0.7-0.4,1-0.2c0.3,0.2,0.4,0.7,0.2,1
			c-0.6,0.9-1.2,1.7-1.9,2.5c0,0.1,0.1,0.1,0.1,0.2c0.9,4.1,0,8.8-2.7,12.9c-2.8,4.4-7.1,7.5-11.8,8.5c-0.7,0.2-2.1,0.8-2.2,1.5
			c-0.1,0.5,0.3,1,0.7,1.4c1.7,1.6,10.9,7.6,22.4,4.9c3.5-0.8,10.1-1.2,12.9,1.4c1,0.9,1.8,2.1,1.6,3.5c0,0.4-0.2,0.5-0.5,0.5
			c-0.1,0-0.3,0.1-0.4,0.1c-0.1,0-0.2,0.1-0.2,0.1c-0.1,0,0,0-0.1,0c0,0-0.2-0.2-0.2-0.2c-0.1-0.6-0.3-1-0.5-1.6
			c-0.1-0.2-0.2-0.4-0.3-0.6c-0.5-0.8-1.2-1.3-2-1.6c-0.8-0.3-1.7-0.5-2.6-0.6c-1-0.1-2.1-0.1-3.1-0.1C84.1,57.7,83,57.8,82,58
			c-0.4,0.1-0.8,0.2-1.2,0.2c-11,2.6-20.9-2.5-23.8-5.3c-1-0.9-1.3-1.8-1.1-2.8c0.4-1.7,3-2.5,3.3-2.5l0,0c4.4-1,8.4-3.8,11-7.9
			c2.2-3.5,3.1-7.4,2.6-10.9c-4.3,5.1-8.6,8.1-13.4,9.5c-2.7,0.8-5.6,1.1-9,0.9c-3.7-0.2-7.9-1-12.9-2.4c-0.3,0-1.3-0.3-1.9-1.3
			c-0.5-0.8-0.6-1.7-0.4-2.9C37.8,22.4,43,14.3,50.5,9c5.8-4,12.2-6.5,19-7.5c6-0.9,12.3-0.6,18.8,0.8c14.7,3.2,25.9,11,29,13.4
			c0,0,0,0,0.1,0.1c1.9,1.4,3.7,2.8,4.7,4C125.3,23.5,116,16.3,112.6,14.1z"/>
		<path class="st4" d="M126.5,73.6c-0.1,0.4-1.2,3.5-3.9,6.7c0,0,0,0,0,0s-3.9,5.4-11.8,7.3c-0.8,0.2-1.2,0.3-1.3,0.4
			c0.2-0.1,2.6-1.5,3-5.9c0-0.5,0-1.1,0-1.7v0c0-0.1,0-0.2,0-0.2c-0.1-4.9-5.8-11.5-5.9-11.6c-0.3-0.3-0.3-0.8,0.1-1.1
			c0.3-0.3,0.8-0.3,1.1,0.1c0.3,0.3,6.5,7.4,6.3,12.9c-0.1,2.6-0.3,3.8,0,3.9c0.3,0.1,2.3-0.2,5.3-3c4-3.7,5.5-8.2,5.5-8.3l0-0.1
			c0-0.1,3.7-9.1,1.1-15.5c-0.2-0.4,0-0.9,0.5-1c0.4-0.2,0.9,0,1,0.4C130.4,63.9,126.8,73,126.5,73.6z"/>
		<g>
			<g>
				<path class="st7" d="M74,117.4l-8.2,3.8c0,0,0,0,0,0c-2.3,1.3-12.6,5.4-9.6,3.4c3.2-2.2,3-6.7,3-6.7s0,0,0,0c0-0.6,0-1.2,0-1.8
					c0-0.4,0.3-0.7,0.7-0.7c0.4,0,0.7,0.3,0.7,0.7c0,0.7,0.1,3.9-0.3,5.6c0.9-0.2,2.5-0.8,3.8-1.3l9.2-4.2c0.4-0.2,0.8,0,1,0.4
					C74.5,116.8,74.4,117.2,74,117.4z"/>
			</g>
		</g>
		<g>
			<path class="st6" d="M61,116c0,0.4-0.4,0.7-0.8,0.7c0,0-0.1,0-0.1,0c-0.3,0-7.3-0.8-15.9-7.8c-7.8-6.4-18-17.8-24.3-43.5
				c-0.7-0.6-7.3-5.9-8.1-8.2c-0.7-2-1-5.5-0.5-15.8c0-0.1,0-0.2,0-0.2s-0.2-7.8,3.2-15.3c0,0,0.2,5.9,1.8,10.8c0,0,0,0,0,0
				c2.4,5.2,7.8,15.2,17.5,25c0.3,0.3,0.3,0.7,0,1c-0.1,0.1-0.3,0.2-0.5,0.2c-0.2,0-0.3-0.1-0.5-0.2c-13-13.1-18.4-26.7-19.2-28.8
				c-0.2,0.6-0.5,2-0.7,4.2h0c-0.7,12.8-0.4,16.7,0.2,18.7c0.5,1.4,5,5.4,7.7,7.5c0.2,0.2,0.3,0.5,0.3,0.7c3.4,14,10.2,31.4,24,42.7
				c8.3,6.8,15.2,7.5,15.2,7.6C60.7,115.2,61,115.5,61,116z"/>
		</g>
	</g>
</g>
</svg>
