<?xml version="1.0" encoding="utf-8"?>
<!-- Generator: Adobe Illustrator 23.0.3, SVG Export Plug-In . SVG Version: 6.00 Build 0)  -->
<svg version="1.1" id="Layer_1" xmlns="http://www.w3.org/2000/svg" xmlns:xlink="http://www.w3.org/1999/xlink" x="0px" y="0px"
	 viewBox="0 0 610.4 134.2" style="enable-background:new 0 0 610.4 134.2;" xml:space="preserve">
<style type="text/css">
	.st0{fill:#E83A2C;}
	.st1{fill:#D2D5D8;}
	.st2{fill:#FFFFFF;stroke:#231F20;stroke-miterlimit:10;}
	.st3{fill:#F4D023;}
	.st4{fill:#FF7D12;}
	.st5{fill:#0E4CA8;}
	.st6{fill:#38B9F9;}
	.st7{fill:#212121;stroke:#231F20;stroke-width:3.9227;stroke-linecap:round;stroke-miterlimit:10;}
	.st8{fill:#D8B421;}
	.st9{fill:#1050A0;}
	.st10{fill:#38B9EB;}
	.st11{fill:#212121;stroke:#231F20;stroke-width:3.7828;stroke-linecap:round;stroke-miterlimit:10;}
	.st12{fill:#EF3933;}
	.st13{fill:#212121;stroke:#231F20;stroke-width:1.2192;stroke-linecap:round;stroke-miterlimit:10;}
	.st14{fill:#212121;stroke:#231F20;stroke-width:1.1757;stroke-linecap:round;stroke-miterlimit:10;}
	.st15{fill:#E6E6E6;}
	.st16{fill:#212121;stroke:#231F20;stroke-width:2.3688;stroke-linecap:round;stroke-miterlimit:10;}
	.st17{fill:#333333;}
	.st18{fill:#212121;stroke:#231F20;stroke-width:2.2843;stroke-linecap:round;stroke-miterlimit:10;}
	.st19{fill:none;stroke:#333333;stroke-linecap:round;stroke-linejoin:round;stroke-miterlimit:10;}
	.st20{fill:#212121;stroke:#231F20;stroke-width:1.2066;stroke-linecap:round;stroke-miterlimit:10;}
	.st21{fill:#212121;stroke:#231F20;stroke-width:1.1636;stroke-linecap:round;stroke-miterlimit:10;}
	.st22{fill:none;stroke:#333333;stroke-width:0.4864;stroke-linecap:round;stroke-linejoin:round;stroke-miterlimit:10;}
	.st23{fill:#4D4D4D;}
	.st24{fill:#212121;stroke:#231F20;stroke-width:1.8141;stroke-linecap:round;stroke-miterlimit:10;}
	.st25{fill:#212121;stroke:#231F20;stroke-width:1.7494;stroke-linecap:round;stroke-miterlimit:10;}
	.st26{fill:none;stroke:#333333;stroke-width:0.7503;stroke-linecap:round;stroke-linejoin:round;stroke-miterlimit:10;}
	.st27{fill:#212121;stroke:#231F20;stroke-width:2.4606;stroke-linecap:round;stroke-miterlimit:10;}
	.st28{fill:#212121;stroke:#231F20;stroke-width:2.3728;stroke-linecap:round;stroke-miterlimit:10;}
	.st29{fill:#212121;stroke:#231F20;stroke-width:1.893;stroke-linecap:round;stroke-miterlimit:10;}
	.st30{fill:#212121;stroke:#231F20;stroke-width:1.6936;stroke-linecap:round;stroke-miterlimit:10;}
	.st31{fill:none;stroke:#EF3933;stroke-width:0.7422;stroke-linecap:round;stroke-linejoin:round;stroke-miterlimit:10;}
	.st32{fill:none;stroke:#38B9EB;stroke-width:0.7422;stroke-linecap:round;stroke-linejoin:round;stroke-miterlimit:10;}
	.st33{fill:none;stroke:#1050A0;stroke-width:0.7421;stroke-linecap:round;stroke-linejoin:round;stroke-miterlimit:10;}
	.st34{fill:#212121;stroke:#231F20;stroke-width:1.3095;stroke-linecap:round;stroke-miterlimit:10;}
	.st35{fill:#212121;stroke:#231F20;stroke-width:1.1716;stroke-linecap:round;stroke-miterlimit:10;}
	.st36{fill:none;stroke:#EF3933;stroke-width:0.5134;stroke-linecap:round;stroke-linejoin:round;stroke-miterlimit:10;}
	.st37{fill:none;stroke:#38B9EB;stroke-width:0.5134;stroke-linecap:round;stroke-linejoin:round;stroke-miterlimit:10;}
	.st38{fill:none;stroke:#1050A0;stroke-width:0.5134;stroke-linecap:round;stroke-linejoin:round;stroke-miterlimit:10;}
	.st39{fill:#212121;stroke:#231F20;stroke-width:2.46;stroke-linecap:round;stroke-miterlimit:10;}
	.st40{fill:none;stroke:#EF3933;stroke-width:1.0781;stroke-linecap:round;stroke-linejoin:round;stroke-miterlimit:10;}
	.st41{fill:none;stroke:#38B9EB;stroke-width:1.0781;stroke-linecap:round;stroke-linejoin:round;stroke-miterlimit:10;}
	.st42{fill:none;stroke:#1050A0;stroke-width:1.0779;stroke-linecap:round;stroke-linejoin:round;stroke-miterlimit:10;}
	.st43{fill:#212121;stroke:#231F20;stroke-width:1.2106;stroke-linecap:round;stroke-miterlimit:10;}
	.st44{fill:none;stroke:#EF3933;stroke-width:0.5305;stroke-linecap:round;stroke-linejoin:round;stroke-miterlimit:10;}
	.st45{fill:none;stroke:#38B9EB;stroke-width:0.5305;stroke-linecap:round;stroke-linejoin:round;stroke-miterlimit:10;}
	.st46{fill:none;stroke:#1050A0;stroke-width:0.5305;stroke-linecap:round;stroke-linejoin:round;stroke-miterlimit:10;}
	.st47{fill:#212121;stroke:#231F20;stroke-width:3.1009;stroke-linecap:round;stroke-miterlimit:10;}
	.st48{fill:none;stroke:#EF3933;stroke-width:1.3589;stroke-linecap:round;stroke-linejoin:round;stroke-miterlimit:10;}
	.st49{fill:none;stroke:#38B9EB;stroke-width:1.3589;stroke-linecap:round;stroke-linejoin:round;stroke-miterlimit:10;}
	.st50{fill:none;stroke:#1050A0;stroke-width:1.3588;stroke-linecap:round;stroke-linejoin:round;stroke-miterlimit:10;}
	.st51{fill:#212121;stroke:#231F20;stroke-width:1.1739;stroke-linecap:round;stroke-miterlimit:10;}
	.st52{fill:none;stroke:#EF3933;stroke-width:0.5145;stroke-linecap:round;stroke-linejoin:round;stroke-miterlimit:10;}
	.st53{fill:none;stroke:#38B9EB;stroke-width:0.5145;stroke-linecap:round;stroke-linejoin:round;stroke-miterlimit:10;}
	.st54{fill:none;stroke:#1050A0;stroke-width:0.5144;stroke-linecap:round;stroke-linejoin:round;stroke-miterlimit:10;}
	.st55{fill:#212121;stroke:#231F20;stroke-width:3.8336;stroke-linecap:round;stroke-miterlimit:10;}
	.st56{fill:none;stroke:#EF3933;stroke-width:1.68;stroke-linecap:round;stroke-linejoin:round;stroke-miterlimit:10;}
	.st57{fill:none;stroke:#38B9EB;stroke-width:1.68;stroke-linecap:round;stroke-linejoin:round;stroke-miterlimit:10;}
	.st58{fill:none;stroke:#1050A0;stroke-width:1.6798;stroke-linecap:round;stroke-linejoin:round;stroke-miterlimit:10;}
	.st59{fill:#212121;stroke:#231F20;stroke-width:1.2277;stroke-linecap:round;stroke-miterlimit:10;}
	.st60{fill:none;stroke:#EF3933;stroke-width:0.538;stroke-linecap:round;stroke-linejoin:round;stroke-miterlimit:10;}
	.st61{fill:none;stroke:#38B9EB;stroke-width:0.538;stroke-linecap:round;stroke-linejoin:round;stroke-miterlimit:10;}
	.st62{fill:none;stroke:#1050A0;stroke-width:0.538;stroke-linecap:round;stroke-linejoin:round;stroke-miterlimit:10;}
	.st63{fill:none;stroke:#E6E6E6;stroke-width:0.9894;stroke-miterlimit:10;}
</style>
<g>
	<g>
		<path class="st0" d="M1,64.1c-0.3-0.3-0.5-0.8-0.7-1.2l14.6-14.5l-1,6c1.5,1.7,3.3,3.1,5.3,4.1c2.1,1,4.2,1.5,6.5,1.5
			c1.5,0,2.8-0.2,4.1-0.4c1.2-0.2,2.5-0.8,3.6-1.8c1.3-0.9,2-2,2.2-3.2c0.2-1.3-0.1-2.5-1-3.8c-0.6-0.8-1.6-1.6-2.9-2.4
			c-1.3-0.8-2.6-1.5-4-2.1c-1.4-0.6-2.8-1.2-4.2-1.7c-1.4-0.5-2.4-0.9-3.3-1.3c-2.6-1-5.1-2-7.5-3c-2.4-1-4.7-2.7-6.7-4.8
			c-0.1-0.1-0.3-0.2-0.4-0.3c-0.3-0.2-0.5-0.5-0.7-0.7c-0.2-0.3-0.4-0.5-0.7-0.7c-0.2-0.3-0.4-0.6-0.6-0.8c-0.2-0.3-0.4-0.5-0.6-0.8
			c-0.8-1.2-1.5-2.6-2-4c-0.3-0.7-0.5-1.5-0.7-2.2c-0.2-0.7-0.3-1.5-0.4-2.3C0.1,22.9,0,22.4,0,21.8c0-0.5,0-1.1,0-1.6
			c0-0.4,0.1-0.9,0.1-1.3c0-0.5,0.1-0.9,0.2-1.4c0.1-0.3,0.2-0.7,0.2-1.1c0.1-0.4,0.2-0.8,0.3-1.2c0.2-0.3,0.3-0.7,0.4-1.1
			c0.1-0.4,0.2-0.8,0.4-1.1c0.8-1.5,1.6-2.9,2.5-4.1c0.4-0.4,0.7-0.8,1-1.2c0.3-0.4,0.6-0.8,1-1.1c1.1-1,2.2-1.9,3.4-2.7l0.2-0.2
			c0.1,0,0.1,0,0.2,0c0,0,0.1,0,0.2,0c1.2-0.8,2.6-1.4,4.2-2C15,1.5,15.5,1.3,16,1.2c0.5-0.1,1-0.3,1.6-0.4c1.3-0.3,2.6-0.5,3.9-0.7
			C22.2,0.1,22.8,0,23.4,0c0.6,0,1.2,0,1.9,0c0.6,0,1.2,0,1.8,0c0.6,0,1.2,0,1.9,0.1l1.8,0.1c0.3,0,0.7,0.1,0.9,0.1
			c0.3,0.1,0.6,0.1,0.9,0.1c0.6,0.1,1.2,0.2,1.9,0.3c0.6,0.1,1.2,0.3,1.9,0.4c1.2,0.3,2.5,0.7,3.7,1.2c1.2,0.5,2.5,1.1,3.7,1.8
			c1.1,0.6,2.2,1.5,3.4,2.4c1,0.8,2,1.8,2.9,2.9c1,1.1,0.3,0.1,0.9,1.1c0.4,0.7-0.4-0.9,0,0l-15,14.8l1.4-6c-1.5-1.7-3.3-3-5.3-3.9
			c-2.1-0.9-4.2-1.4-6.4-1.4c-1.5,0-2.8,0.1-4.1,0.3c-1.2,0.3-2.5,0.8-3.7,1.7c-1.2,0.9-1.9,2-2.1,3.3c-0.2,1.3,0.1,2.6,1,3.8
			c0.6,0.8,1.6,1.6,2.8,2.4c1.2,0.8,2.6,1.4,4,2.1c1.4,0.6,2.8,1.2,4.2,1.7c1.4,0.5,2.5,0.9,3.3,1.3c2.6,1,5.1,2,7.5,3.1
			c2.4,1,4.7,2.6,6.7,4.8c1.3,1.3,2.3,2.5,3.1,3.8c0.8,1.2,1.4,2.4,1.8,3.6c0.4,1.1,0.7,2.2,0.9,3.3c0.1,1,0.2,1.9,0.3,2.6
			c0,0.4,0.1,0.7,0.1,1.1c0,0.4,0,0.7,0,1.2c0,0.3-0.1,0.7-0.1,1.1c-0.1,0.4-0.2,0.9-0.3,1.3c0,0.4-0.1,0.8-0.2,1.2
			c-0.1,0.4-0.2,0.7-0.3,1.1c-0.3,1-0.6,1.7-0.9,2.2c-0.7,1.6-1.5,2.9-2.5,4.1c-0.5,0.8-1.2,1.6-1.9,2.3c-1.1,1-2.2,2-3.6,2.8
			c-0.1,0-0.1,0-0.1,0c0,0,0,0-0.1,0c-0.1,0-0.1,0-0.1,0c0,0,0,0-0.1,0c-0.7,0.4-1.4,0.8-2.1,1.1c-0.7,0.3-1.5,0.6-2.3,0.9
			c-1.1,0.4-2.2,0.7-3.1,0.9c-0.6,0.1-1.3,0.2-2,0.3c-0.7,0.1-1.3,0.2-2,0.3c-0.6,0.1-1.3,0.2-1.9,0.2c-0.6,0-1.3,0.1-1.9,0.1
			c-0.6,0-1.3,0-1.9,0c-0.6,0-1.3-0.1-1.9-0.1l-1.9-0.1c-0.3,0-0.6,0-0.8-0.1c-0.3,0-0.6-0.1-0.9-0.2c-0.6-0.1-1.3-0.2-1.9-0.3
			c-0.7-0.1-1.3-0.3-1.9-0.5c-1.3-0.3-2.5-0.7-3.6-1.2c-1.2-0.5-2.5-1.1-3.7-1.8C7,69.4,6.5,69,5.9,68.6c-0.6-0.4-1.1-0.8-1.6-1.3
			c-1-0.8-2-1.8-2.9-2.9L1,64.1z"/>
		<path class="st0" d="M135.8,59.1L148,73.1H93.4l3.9-5.6V6.7l-3.9-4.8H148l-12.2,13.9h-22.4V31h24.4L127,43.1h-13.6v16.1H135.8z"/>
		<path class="st0" d="M210.4,73.1h-23.1l2.6-4.1l-16.4-26.3h-0.1v24.7l4.9,5.8h-24.9l4.5-4.2V6.4l-4.7-4.6h4.7l29,0.1
			c3.5,0,6.6,0.6,9.3,1.8c2.7,1.2,5.1,3.4,7,6.4c1.8,2.8,2.8,5.8,3.2,9c0.4,3.2,0.1,6.4-0.9,9.4c-0.5,1.6-1.1,3.1-1.9,4.5
			c-0.8,1.5-1.7,2.8-2.9,4c-1.1,1.2-2.4,2.3-3.7,3.2c-1.4,0.9-2.9,1.5-4.5,1.9c-0.4,0.1-0.8,0.2-1.2,0.3c-0.4,0.1-0.8,0.1-1.2,0.1
			L210.4,73.1z M173.4,31.4h9.6h0.6c1.1-0.1,2.1-0.4,3-1c0.9-0.6,1.6-1.3,2.2-2.2c0.6-0.9,1.1-1.9,1.5-3c0.4-1.1,0.6-2.1,0.6-3.2
			c0-1.1-0.2-2.2-0.6-3.2c-0.4-1.1-0.9-2-1.5-2.8c-0.6-0.8-1.4-1.5-2.4-2c-1-0.5-2-0.8-3.2-0.8h-9.8V31.4z"/>
		<path class="st0" d="M272.8,73.1h-23l2.5-4.1l-16.4-26.3h-0.1v24.7l4.9,5.8h-24.9l4.5-4.2V6.5l-4.7-4.6h4.7l29,0.1
			c3.5,0,6.6,0.6,9.3,1.8c2.7,1.2,5.1,3.4,7,6.4c1.8,2.8,2.8,5.8,3.2,9c0.4,3.2,0.1,6.4-0.9,9.4c-0.5,1.6-1.1,3.1-1.9,4.5
			c-0.8,1.5-1.7,2.8-2.9,4c-1.1,1.2-2.4,2.3-3.7,3.2c-1.4,0.9-2.9,1.5-4.5,1.9c-0.4,0.1-0.8,0.2-1.2,0.3c-0.4,0.1-0.8,0.1-1.2,0.1
			L272.8,73.1z M235.8,31.4h9.6h0.6c1.1-0.1,2.1-0.4,3-1c0.9-0.6,1.6-1.3,2.2-2.2c0.6-0.9,1.1-1.9,1.5-3c0.4-1.1,0.6-2.1,0.6-3.2
			c0-1.1-0.2-2.2-0.6-3.2c-0.4-1.1-0.9-2-1.5-2.8c-0.6-0.8-1.4-1.5-2.4-2c-1-0.5-2-0.8-3.2-0.8h-9.8V31.4z"/>
		<path class="st0" d="M339,67.6L316.6,1.9h-17.5l2.6,2.8l-22.4,64.5l-4.4,4.1H300l-4.1-4.9l0,0l5.4-14.2h16.3l4.8,15.9l-3.5,3.3
			h25.1L339,67.6z M304.5,43.2l5-16.6l4.8,16.6H304.5z"/>
		<g>
			<path class="st0" d="M478.9,67.3L456.5,1.6H439l2.6,2.8l-22.4,64.4l-4.4,4.1h25.1l-4.1-4.9l0,0l5.4-14.2h16.3l4.8,15.9l-3.5,3.3
				h25.1L478.9,67.3z M444.4,42.9l5-16.6l4.8,16.6H444.4z"/>
			<path class="st0" d="M544.1,72.9H521l2.6-4.1l-16.4-26.3H507v24.7l4.9,5.8H487l4.5-4.2V6.2l-4.7-4.6h4.7l29,0.1
				c3.5,0,6.6,0.6,9.3,1.8c2.7,1.2,5.1,3.4,7,6.4c1.8,2.8,2.8,5.8,3.2,9c0.4,3.2,0.1,6.4-0.9,9.4c-0.5,1.6-1.1,3.1-1.9,4.5
				c-0.8,1.5-1.7,2.8-2.9,4c-1.1,1.2-2.4,2.3-3.7,3.2c-1.4,0.9-2.9,1.5-4.5,1.9c-0.4,0.1-0.8,0.2-1.2,0.3c-0.4,0.1-0.8,0.1-1.2,0.1
				L544.1,72.9z M507.2,30.9h9.7h0.6c1.1-0.1,2.1-0.4,3-1c0.9-0.6,1.6-1.3,2.3-2.2c0.6-0.9,1.1-1.9,1.5-3c0.4-1.1,0.6-2.2,0.6-3.2
				c0-1.1-0.2-2.2-0.6-3.2c-0.4-1.1-0.9-2-1.5-2.8c-0.7-0.8-1.5-1.5-2.4-2c-1-0.5-2-0.8-3.2-0.8h-9.9V30.9z"/>
			<path class="st0" d="M610.4,72.8h-24l2.4-2.8l-19-25.2l-0.1,24v4H548l4.2-3.6l0.2-59.1v-3L548,1.9h21.7l-0.1,28.3v1.4l18.1-27
				l-2.2-2.7h20.5l-22.6,35.6L610.4,72.8z"/>
			<path class="st0" d="M421.1,20.1c-0.2-1.9-0.6-3.7-1.1-5.4s-1.2-3.3-2.1-4.6c-2-3-4.3-5.2-7-6.4c-2.7-1.2-5.8-1.8-9.2-1.8
				l-28.7-0.2h-4.6l4.6,4.6V68l-3.5,4.8h23.7l-4.8-5.8V43.8h9.5c1.6,0,3.2,0,4.7,0.2c1.5,0.1,3.1-0.1,4.7-0.5
				c3.2-0.8,5.9-2.4,8.1-4.7c2.2-2.4,3.8-5,4.7-8.1c0.5-1.5,0.8-3.1,0.9-5C421.3,23.8,421.3,22,421.1,20.1z M406.6,25.8
				c-0.4,1.2-0.9,2.2-1.6,3.2c-0.7,0.9-1.5,1.7-2.4,2.4c-0.9,0.6-2,1-3.2,1h-0.7h-0.2c0,0,0,0,0,0h-0.6h-9.5v0V13v0h9.7c0,0,0,0,0,0
				h0.8c1.2,0,2.4,0.3,3.4,0.8c1,0.5,1.9,1.3,2.6,2.1c0.7,0.9,1.2,1.9,1.6,3c0.4,1.1,0.6,2.3,0.6,3.5
				C407.2,23.5,407,24.7,406.6,25.8z"/>
		</g>
		<polygon class="st0" points="64,69.7 64,31.9 64,31.9 64,4.4 61.4,1.6 80.4,1.6 80.3,20.8 80.4,20.8 80.4,68 83.9,73.1 61.4,73.1 
					"/>
	</g>
	<g>
		<g>
			<path class="st6" d="M4.3,87h19.3v3.8H8.3v8.9h14.2v3.8H8.3v9.6h16v3.8H4.3V87z"/>
			<path class="st6" d="M29,85h3.8v32H29V85z"/>
			<path class="st6" d="M41.3,108.3c0,0.9,0.2,1.7,0.6,2.4c0.4,0.7,0.9,1.3,1.5,1.8c0.6,0.5,1.3,0.9,2.2,1.2
				c0.8,0.3,1.7,0.4,2.5,0.4c1.2,0,2.2-0.3,3.1-0.8c0.9-0.5,1.7-1.3,2.4-2.2l2.9,2.2c-2.1,2.7-5.1,4.1-8.9,4.1c-1.6,0-3-0.3-4.3-0.8
				c-1.3-0.5-2.4-1.3-3.3-2.2s-1.6-2.1-2.1-3.3c-0.5-1.3-0.7-2.7-0.7-4.2s0.3-2.9,0.8-4.2c0.5-1.3,1.2-2.4,2.2-3.3
				c0.9-0.9,2-1.7,3.3-2.2c1.3-0.5,2.6-0.8,4.1-0.8c1.8,0,3.3,0.3,4.5,0.9s2.2,1.4,3,2.4c0.8,1,1.4,2.1,1.7,3.4s0.5,2.5,0.5,3.8v1.4
				H41.3z M53.3,105.3c0-0.8-0.2-1.6-0.4-2.3c-0.2-0.7-0.6-1.3-1.1-1.8c-0.5-0.5-1.1-0.9-1.8-1.2c-0.7-0.3-1.6-0.4-2.5-0.4
				c-0.9,0-1.8,0.2-2.6,0.5c-0.8,0.4-1.4,0.8-2,1.4c-0.5,0.6-1,1.2-1.2,1.9c-0.3,0.7-0.4,1.4-0.4,2.1H53.3z"/>
			<path class="st6" d="M61.5,96.9h3.6v3.1h0.1c0.1-0.3,0.3-0.6,0.7-1.1s0.8-0.8,1.4-1.2c0.5-0.4,1.2-0.7,1.9-1
				c0.7-0.3,1.6-0.4,2.5-0.4c1.5,0,2.7,0.3,3.8,0.9c1,0.6,1.8,1.6,2.5,2.8c0.6-1.2,1.6-2.2,2.7-2.8c1.2-0.6,2.4-0.9,3.6-0.9
				c1.5,0,2.8,0.3,3.8,0.8c1,0.5,1.8,1.2,2.3,2c0.6,0.8,1,1.8,1.2,2.8c0.2,1.1,0.3,2.1,0.3,3.3v11.7H88v-11.2c0-0.8,0-1.5-0.1-2.2
				c-0.1-0.7-0.3-1.3-0.6-1.9c-0.3-0.5-0.7-1-1.3-1.3c-0.6-0.3-1.3-0.5-2.2-0.5c-1.8,0-3.1,0.6-3.9,1.7c-0.8,1.1-1.2,2.6-1.2,4.4v11
				h-3.8v-10.5c0-1,0-1.8-0.1-2.6c-0.1-0.8-0.3-1.5-0.6-2.1c-0.3-0.6-0.7-1-1.3-1.4c-0.5-0.3-1.3-0.5-2.2-0.5c-0.7,0-1.3,0.1-2,0.4
				c-0.6,0.3-1.2,0.7-1.7,1.2c-0.5,0.5-0.9,1.2-1.1,2.1c-0.3,0.8-0.4,1.8-0.4,2.9v10.4h-3.8V96.9z"/>
			<path class="st6" d="M99.6,108.3c0,0.9,0.2,1.7,0.6,2.4c0.4,0.7,0.9,1.3,1.5,1.8c0.6,0.5,1.3,0.9,2.2,1.2
				c0.8,0.3,1.7,0.4,2.5,0.4c1.2,0,2.2-0.3,3.1-0.8c0.9-0.5,1.7-1.3,2.4-2.2l2.9,2.2c-2.1,2.7-5.1,4.1-8.9,4.1c-1.6,0-3-0.3-4.3-0.8
				c-1.3-0.5-2.4-1.3-3.3-2.2s-1.6-2.1-2.1-3.3c-0.5-1.3-0.7-2.7-0.7-4.2s0.3-2.9,0.8-4.2c0.5-1.3,1.2-2.4,2.2-3.3
				c0.9-0.9,2-1.7,3.3-2.2c1.3-0.5,2.6-0.8,4.1-0.8c1.8,0,3.3,0.3,4.5,0.9s2.2,1.4,3,2.4c0.8,1,1.4,2.1,1.7,3.4s0.5,2.5,0.5,3.8v1.4
				H99.6z M111.6,105.3c0-0.8-0.2-1.6-0.4-2.3c-0.2-0.7-0.6-1.3-1.1-1.8c-0.5-0.5-1.1-0.9-1.8-1.2c-0.7-0.3-1.6-0.4-2.5-0.4
				c-0.9,0-1.8,0.2-2.6,0.5c-0.8,0.4-1.4,0.8-2,1.4c-0.5,0.6-1,1.2-1.2,1.9c-0.3,0.7-0.4,1.4-0.4,2.1H111.6z"/>
			<path class="st6" d="M119.8,96.9h3.8v3.1h0.1c0.5-1.1,1.3-1.9,2.5-2.6c1.2-0.7,2.6-1,4.1-1c1,0,1.9,0.1,2.8,0.4s1.7,0.8,2.3,1.4
				c0.7,0.6,1.2,1.4,1.6,2.4c0.4,1,0.6,2.1,0.6,3.4v12.9h-3.8v-11.8c0-0.9-0.1-1.7-0.4-2.4c-0.3-0.7-0.6-1.2-1-1.6
				c-0.4-0.4-0.9-0.7-1.5-0.9c-0.5-0.2-1.1-0.3-1.7-0.3c-0.8,0-1.5,0.1-2.2,0.4c-0.7,0.3-1.3,0.7-1.8,1.2c-0.5,0.5-0.9,1.2-1.2,2.1
				s-0.4,1.8-0.4,3v10.3h-3.8V96.9z"/>
			<path class="st6" d="M153.6,100.2h-5.5v9.1c0,0.6,0,1.1,0,1.7s0.1,1,0.3,1.5c0.2,0.4,0.5,0.8,0.8,1.1c0.4,0.3,0.9,0.4,1.7,0.4
				c0.5,0,0.9,0,1.4-0.1c0.5-0.1,0.9-0.2,1.3-0.5v3.5c-0.5,0.3-1,0.4-1.8,0.5c-0.7,0.1-1.3,0.1-1.7,0.1c-1.5,0-2.6-0.2-3.4-0.6
				c-0.8-0.4-1.4-0.9-1.8-1.6s-0.6-1.4-0.7-2.2s-0.1-1.6-0.1-2.4v-10.4H140v-3.3h4.4v-5.6h3.8v5.6h5.5V100.2z"/>
			<path class="st6" d="M158.2,99.3c1.1-1,2.3-1.7,3.7-2.2s2.8-0.7,4.2-0.7c1.5,0,2.7,0.2,3.8,0.5c1.1,0.4,1.9,0.9,2.6,1.5
				c0.7,0.6,1.2,1.3,1.5,2.1c0.3,0.8,0.5,1.6,0.5,2.5v10.2c0,0.7,0,1.4,0,1.9c0,0.6,0.1,1.2,0.1,1.7h-3.4c-0.1-1-0.1-2-0.1-3h-0.1
				c-0.8,1.3-1.8,2.2-3,2.7c-1.2,0.5-2.5,0.8-4,0.8c-0.9,0-1.8-0.1-2.7-0.4s-1.6-0.6-2.2-1.1c-0.6-0.5-1.1-1.1-1.5-1.9
				s-0.5-1.6-0.5-2.6c0-1.3,0.3-2.4,0.9-3.3c0.6-0.9,1.4-1.6,2.4-2.1c1-0.5,2.2-0.9,3.5-1.2c1.3-0.2,2.8-0.4,4.3-0.4h2.8v-0.8
				c0-0.5-0.1-1-0.3-1.5c-0.2-0.5-0.5-1-0.9-1.4c-0.4-0.4-0.9-0.7-1.5-1c-0.6-0.2-1.3-0.4-2.1-0.4c-0.7,0-1.4,0.1-1.9,0.2
				c-0.5,0.1-1,0.3-1.5,0.5c-0.5,0.2-0.9,0.5-1.2,0.7c-0.4,0.3-0.7,0.5-1.1,0.8L158.2,99.3z M168.9,107.3c-0.9,0-1.8,0-2.8,0.1
				c-0.9,0.1-1.8,0.3-2.6,0.6c-0.8,0.3-1.4,0.7-1.9,1.2c-0.5,0.5-0.7,1.2-0.7,1.9c0,1.2,0.4,2,1.2,2.5c0.8,0.5,1.8,0.8,3.2,0.8
				c1,0,1.9-0.2,2.7-0.5c0.7-0.4,1.3-0.8,1.8-1.4c0.5-0.6,0.8-1.2,1-1.9s0.3-1.4,0.3-2.1v-1.3H168.9z"/>
			<path class="st6" d="M179.2,96.9h3.8v3.1h0.1c0.3-0.5,0.6-1,1-1.5c0.4-0.4,0.9-0.8,1.4-1.1c0.5-0.3,1.1-0.6,1.7-0.7
				s1.2-0.3,1.9-0.3c0.6,0,1.2,0.1,1.7,0.3l-0.2,4.1c-0.3-0.1-0.6-0.2-0.9-0.2c-0.3-0.1-0.6-0.1-0.9-0.1c-1.9,0-3.3,0.5-4.3,1.6
				c-1,1-1.5,2.7-1.5,4.9v10.1h-3.8V96.9z"/>
			<path class="st6" d="M192.5,96.9h4.4l5.9,15.6h0.1l5.7-15.6h4.1l-9.5,24.4c-0.3,0.9-0.7,1.7-1.1,2.4c-0.4,0.7-0.8,1.3-1.3,1.8
				c-0.5,0.5-1.1,0.9-1.8,1.2c-0.7,0.3-1.6,0.4-2.6,0.4c-0.6,0-1.1,0-1.7-0.1c-0.6-0.1-1.1-0.2-1.7-0.4l0.5-3.5
				c0.8,0.3,1.5,0.5,2.3,0.5c0.6,0,1.1-0.1,1.5-0.2c0.4-0.2,0.8-0.4,1.1-0.7c0.3-0.3,0.5-0.6,0.7-1c0.2-0.4,0.4-0.8,0.6-1.4l1.2-3.2
				L192.5,96.9z"/>
			<path class="st6" d="M229.6,110.7c0.7,1.1,1.7,1.9,2.8,2.4c1.1,0.5,2.3,0.8,3.5,0.8c0.7,0,1.4-0.1,2.1-0.3c0.7-0.2,1.3-0.5,1.9-1
				s1-0.9,1.4-1.6c0.4-0.6,0.5-1.3,0.5-2.2c0-1.2-0.4-2-1.1-2.6c-0.7-0.6-1.6-1.1-2.7-1.5c-1.1-0.4-2.3-0.8-3.6-1.2
				c-1.3-0.4-2.5-0.9-3.6-1.6c-1.1-0.7-2-1.6-2.7-2.7c-0.7-1.1-1.1-2.7-1.1-4.6c0-0.9,0.2-1.8,0.6-2.8c0.4-1,1-1.9,1.8-2.7
				c0.8-0.8,1.9-1.5,3.2-2.1c1.3-0.5,2.8-0.8,4.6-0.8c1.6,0,3.2,0.2,4.7,0.7c1.5,0.5,2.8,1.4,3.9,2.7l-3.3,3
				c-0.5-0.8-1.2-1.4-2.2-1.9c-0.9-0.5-2-0.7-3.2-0.7c-1.1,0-2.1,0.1-2.8,0.4c-0.7,0.3-1.3,0.7-1.8,1.1s-0.8,1-1,1.5
				c-0.2,0.5-0.3,1-0.3,1.5c0,1.3,0.4,2.2,1.1,2.9c0.7,0.7,1.6,1.2,2.7,1.6s2.3,0.8,3.6,1.1c1.3,0.3,2.5,0.8,3.6,1.4
				c1.1,0.6,2,1.4,2.7,2.5c0.7,1,1.1,2.4,1.1,4.2c0,1.4-0.3,2.7-0.8,3.9c-0.5,1.2-1.3,2.1-2.2,2.9c-0.9,0.8-2,1.4-3.3,1.8
				s-2.6,0.6-4.1,0.6c-1.9,0-3.7-0.3-5.5-1c-1.7-0.7-3.1-1.7-4.1-3.1L229.6,110.7z"/>
			<path class="st6" d="M264.7,102.2c-0.7-0.7-1.4-1.3-2.2-1.7c-0.8-0.4-1.7-0.6-2.8-0.6c-1,0-2,0.2-2.7,0.6
				c-0.8,0.4-1.4,0.9-1.9,1.6c-0.5,0.7-0.9,1.4-1.2,2.3c-0.3,0.9-0.4,1.8-0.4,2.7c0,0.9,0.2,1.8,0.5,2.6c0.3,0.8,0.7,1.6,1.3,2.2
				c0.6,0.6,1.2,1.1,2,1.5c0.8,0.4,1.7,0.5,2.7,0.5c1.1,0,2-0.2,2.7-0.6c0.8-0.4,1.5-0.9,2.1-1.7l2.7,2.7c-1,1.1-2.1,1.9-3.4,2.4
				c-1.3,0.5-2.7,0.7-4.2,0.7c-1.6,0-3-0.3-4.2-0.8c-1.3-0.5-2.4-1.2-3.3-2.1c-0.9-0.9-1.6-2-2.2-3.3c-0.5-1.3-0.8-2.7-0.8-4.2
				c0-1.6,0.3-3,0.8-4.3c0.5-1.3,1.2-2.4,2.1-3.3c0.9-0.9,2-1.7,3.3-2.2c1.3-0.5,2.7-0.8,4.3-0.8c1.5,0,2.9,0.3,4.2,0.8
				s2.5,1.3,3.5,2.4L264.7,102.2z"/>
			<path class="st6" d="M270.8,85h3.8v15h0.1c0.5-1.1,1.3-1.9,2.5-2.6c1.2-0.7,2.6-1,4.1-1c1,0,1.9,0.1,2.8,0.4s1.7,0.8,2.3,1.4
				c0.7,0.6,1.2,1.4,1.6,2.4c0.4,1,0.6,2.1,0.6,3.4v12.9h-3.8v-11.8c0-0.9-0.1-1.7-0.4-2.4c-0.3-0.7-0.6-1.2-1-1.6
				c-0.4-0.4-0.9-0.7-1.5-0.9c-0.5-0.2-1.1-0.3-1.7-0.3c-0.8,0-1.5,0.1-2.2,0.4c-0.7,0.3-1.3,0.7-1.8,1.2c-0.5,0.5-0.9,1.2-1.2,2.1
				s-0.4,1.8-0.4,3v10.3h-3.8V85z"/>
			<path class="st6" d="M291.6,106.9c0-1.5,0.3-2.8,0.8-4.1s1.3-2.4,2.3-3.3c1-1,2.1-1.7,3.4-2.3s2.7-0.8,4.2-0.8s2.9,0.3,4.2,0.8
				c1.3,0.5,2.4,1.3,3.4,2.3c1,1,1.7,2.1,2.3,3.3s0.8,2.6,0.8,4.1s-0.3,2.8-0.8,4.1s-1.3,2.4-2.3,3.3c-1,0.9-2.1,1.7-3.4,2.2
				c-1.3,0.5-2.7,0.8-4.2,0.8s-2.9-0.3-4.2-0.8s-2.4-1.3-3.4-2.2c-1-0.9-1.7-2.1-2.3-3.3S291.6,108.4,291.6,106.9z M295.7,106.9
				c0,1,0.2,2,0.5,2.8c0.3,0.9,0.7,1.6,1.3,2.2c0.6,0.6,1.3,1.1,2.1,1.4c0.8,0.4,1.7,0.5,2.7,0.5s1.9-0.2,2.7-0.5
				c0.8-0.4,1.5-0.8,2.1-1.4c0.6-0.6,1-1.3,1.3-2.2c0.3-0.9,0.5-1.8,0.5-2.8s-0.2-2-0.5-2.8c-0.3-0.9-0.7-1.6-1.3-2.2
				c-0.6-0.6-1.3-1.1-2.1-1.4s-1.7-0.5-2.7-0.5s-1.9,0.2-2.7,0.5c-0.8,0.4-1.5,0.8-2.1,1.4c-0.6,0.6-1,1.3-1.3,2.2
				C295.8,105,295.7,105.9,295.7,106.9z"/>
			<path class="st6" d="M315.5,106.9c0-1.5,0.3-2.8,0.8-4.1s1.3-2.4,2.3-3.3c1-1,2.1-1.7,3.4-2.3s2.7-0.8,4.2-0.8s2.9,0.3,4.2,0.8
				c1.3,0.5,2.4,1.3,3.4,2.3c1,1,1.7,2.1,2.3,3.3s0.8,2.6,0.8,4.1s-0.3,2.8-0.8,4.1s-1.3,2.4-2.3,3.3c-1,0.9-2.1,1.7-3.4,2.2
				c-1.3,0.5-2.7,0.8-4.2,0.8s-2.9-0.3-4.2-0.8s-2.4-1.3-3.4-2.2c-1-0.9-1.7-2.1-2.3-3.3S315.5,108.4,315.5,106.9z M319.5,106.9
				c0,1,0.2,2,0.5,2.8c0.3,0.9,0.7,1.6,1.3,2.2c0.6,0.6,1.3,1.1,2.1,1.4c0.8,0.4,1.7,0.5,2.7,0.5s1.9-0.2,2.7-0.5
				c0.8-0.4,1.5-0.8,2.1-1.4c0.6-0.6,1-1.3,1.3-2.2c0.3-0.9,0.5-1.8,0.5-2.8s-0.2-2-0.5-2.8c-0.3-0.9-0.7-1.6-1.3-2.2
				c-0.6-0.6-1.3-1.1-2.1-1.4s-1.7-0.5-2.7-0.5s-1.9,0.2-2.7,0.5c-0.8,0.4-1.5,0.8-2.1,1.4c-0.6,0.6-1,1.3-1.3,2.2
				C319.7,105,319.5,105.9,319.5,106.9z"/>
			<path class="st6" d="M340.2,85h3.8v32h-3.8V85z"/>
		</g>
	</g>
</g>
</svg>
